<mxfile host="65bd71144e">
    <diagram name="Page-1" id="MmQWQliLs_yuCxj9gIKR">
        <mxGraphModel dx="3047" dy="1158" grid="1" gridSize="10" guides="1" tooltips="1" connect="1" arrows="1" fold="1" page="1" pageScale="1" pageWidth="850" pageHeight="1100" math="0" shadow="0">
            <root>
                <mxCell id="0"/>
                <mxCell id="1" parent="0"/>
                <mxCell id="TiiX26Bb1OiR6IXR6t6P-1" style="edgeStyle=orthogonalEdgeStyle;rounded=0;orthogonalLoop=1;jettySize=auto;html=1;" parent="1" source="K9-R-xJxUMv8-NCfHtHC-2" target="K9-R-xJxUMv8-NCfHtHC-5" edge="1">
                    <mxGeometry relative="1" as="geometry"/>
                </mxCell>
                <mxCell id="K9-R-xJxUMv8-NCfHtHC-2" value="USER" style="shape=umlActor;verticalLabelPosition=bottom;verticalAlign=top;html=1;outlineConnect=0;" parent="1" vertex="1">
                    <mxGeometry x="410" y="40" width="30" height="60" as="geometry"/>
                </mxCell>
                <mxCell id="TiiX26Bb1OiR6IXR6t6P-5" value="j" style="edgeStyle=orthogonalEdgeStyle;rounded=0;orthogonalLoop=1;jettySize=auto;html=1;entryX=0.5;entryY=0;entryDx=0;entryDy=0;" parent="1" edge="1">
                    <mxGeometry relative="1" as="geometry">
                        <mxPoint x="425" y="271" as="targetPoint"/>
                        <mxPoint x="425" y="221" as="sourcePoint"/>
                    </mxGeometry>
                </mxCell>
                <mxCell id="K9-R-xJxUMv8-NCfHtHC-5" value="&amp;nbsp;Turn ON/&lt;div&gt;System Sleep.&lt;/div&gt;" style="rounded=1;whiteSpace=wrap;html=1;" parent="1" vertex="1">
                    <mxGeometry x="365" y="160" width="120" height="60" as="geometry"/>
                </mxCell>
                <mxCell id="TiiX26Bb1OiR6IXR6t6P-38" style="edgeStyle=orthogonalEdgeStyle;rounded=0;orthogonalLoop=1;jettySize=auto;html=1;entryX=0.5;entryY=0;entryDx=0;entryDy=0;" parent="1" source="TiiX26Bb1OiR6IXR6t6P-6" target="TiiX26Bb1OiR6IXR6t6P-28" edge="1">
                    <mxGeometry relative="1" as="geometry"/>
                </mxCell>
                <mxCell id="TiiX26Bb1OiR6IXR6t6P-49" style="edgeStyle=orthogonalEdgeStyle;rounded=0;orthogonalLoop=1;jettySize=auto;html=1;entryX=0.471;entryY=0.01;entryDx=0;entryDy=0;entryPerimeter=0;" parent="1" source="TiiX26Bb1OiR6IXR6t6P-6" target="TiiX26Bb1OiR6IXR6t6P-39" edge="1">
                    <mxGeometry relative="1" as="geometry">
                        <Array as="points">
                            <mxPoint x="425" y="540"/>
                            <mxPoint x="217" y="540"/>
                        </Array>
                    </mxGeometry>
                </mxCell>
                <mxCell id="TiiX26Bb1OiR6IXR6t6P-60" style="edgeStyle=orthogonalEdgeStyle;rounded=0;orthogonalLoop=1;jettySize=auto;html=1;entryX=0.5;entryY=0;entryDx=0;entryDy=0;" parent="1" source="TiiX26Bb1OiR6IXR6t6P-6" target="TiiX26Bb1OiR6IXR6t6P-50" edge="1">
                    <mxGeometry relative="1" as="geometry">
                        <Array as="points">
                            <mxPoint x="425" y="540"/>
                            <mxPoint x="765" y="540"/>
                        </Array>
                    </mxGeometry>
                </mxCell>
                <mxCell id="TiiX26Bb1OiR6IXR6t6P-71" style="edgeStyle=orthogonalEdgeStyle;rounded=0;orthogonalLoop=1;jettySize=auto;html=1;entryX=0.5;entryY=0;entryDx=0;entryDy=0;" parent="1" source="TiiX26Bb1OiR6IXR6t6P-6" target="TiiX26Bb1OiR6IXR6t6P-61" edge="1">
                    <mxGeometry relative="1" as="geometry"/>
                </mxCell>
                <mxCell id="TiiX26Bb1OiR6IXR6t6P-6" value="Main Menu" style="shape=table;startSize=30;container=1;collapsible=0;childLayout=tableLayout;fixedRows=1;rowLines=0;fontStyle=0;strokeColor=default;fontSize=16;" parent="1" vertex="1">
                    <mxGeometry x="335" y="270" width="180" height="210" as="geometry"/>
                </mxCell>
                <mxCell id="TiiX26Bb1OiR6IXR6t6P-7" value="" style="shape=tableRow;horizontal=0;startSize=0;swimlaneHead=0;swimlaneBody=0;top=0;left=0;bottom=0;right=0;collapsible=0;dropTarget=0;fillColor=none;points=[[0,0.5],[1,0.5]];portConstraint=eastwest;strokeColor=inherit;fontSize=16;" parent="TiiX26Bb1OiR6IXR6t6P-6" vertex="1">
                    <mxGeometry y="30" width="180" height="30" as="geometry"/>
                </mxCell>
                <mxCell id="TiiX26Bb1OiR6IXR6t6P-8" value="1" style="shape=partialRectangle;html=1;whiteSpace=wrap;connectable=0;fillColor=none;top=0;left=0;bottom=0;right=0;overflow=hidden;pointerEvents=1;strokeColor=inherit;fontSize=16;" parent="TiiX26Bb1OiR6IXR6t6P-7" vertex="1">
                    <mxGeometry width="40" height="30" as="geometry">
                        <mxRectangle width="40" height="30" as="alternateBounds"/>
                    </mxGeometry>
                </mxCell>
                <mxCell id="TiiX26Bb1OiR6IXR6t6P-9" value="Radio" style="shape=partialRectangle;html=1;whiteSpace=wrap;connectable=0;fillColor=none;top=0;left=0;bottom=0;right=0;align=left;spacingLeft=6;overflow=hidden;strokeColor=inherit;fontSize=16;" parent="TiiX26Bb1OiR6IXR6t6P-7" vertex="1">
                    <mxGeometry x="40" width="140" height="30" as="geometry">
                        <mxRectangle width="140" height="30" as="alternateBounds"/>
                    </mxGeometry>
                </mxCell>
                <mxCell id="TiiX26Bb1OiR6IXR6t6P-10" value="" style="shape=tableRow;horizontal=0;startSize=0;swimlaneHead=0;swimlaneBody=0;top=0;left=0;bottom=0;right=0;collapsible=0;dropTarget=0;fillColor=none;points=[[0,0.5],[1,0.5]];portConstraint=eastwest;strokeColor=inherit;fontSize=16;" parent="TiiX26Bb1OiR6IXR6t6P-6" vertex="1">
                    <mxGeometry y="60" width="180" height="30" as="geometry"/>
                </mxCell>
                <mxCell id="TiiX26Bb1OiR6IXR6t6P-11" value="2" style="shape=partialRectangle;html=1;whiteSpace=wrap;connectable=0;fillColor=none;top=0;left=0;bottom=0;right=0;overflow=hidden;strokeColor=inherit;fontSize=16;" parent="TiiX26Bb1OiR6IXR6t6P-10" vertex="1">
                    <mxGeometry width="40" height="30" as="geometry">
                        <mxRectangle width="40" height="30" as="alternateBounds"/>
                    </mxGeometry>
                </mxCell>
                <mxCell id="TiiX26Bb1OiR6IXR6t6P-12" value="Personal Audio" style="shape=partialRectangle;html=1;whiteSpace=wrap;connectable=0;fillColor=none;top=0;left=0;bottom=0;right=0;align=left;spacingLeft=6;overflow=hidden;strokeColor=inherit;fontSize=16;" parent="TiiX26Bb1OiR6IXR6t6P-10" vertex="1">
                    <mxGeometry x="40" width="140" height="30" as="geometry">
                        <mxRectangle width="140" height="30" as="alternateBounds"/>
                    </mxGeometry>
                </mxCell>
                <mxCell id="TiiX26Bb1OiR6IXR6t6P-13" value="" style="shape=tableRow;horizontal=0;startSize=0;swimlaneHead=0;swimlaneBody=0;top=0;left=0;bottom=0;right=0;collapsible=0;dropTarget=0;fillColor=none;points=[[0,0.5],[1,0.5]];portConstraint=eastwest;strokeColor=inherit;fontSize=16;" parent="TiiX26Bb1OiR6IXR6t6P-6" vertex="1">
                    <mxGeometry y="90" width="180" height="30" as="geometry"/>
                </mxCell>
                <mxCell id="TiiX26Bb1OiR6IXR6t6P-14" value="3" style="shape=partialRectangle;html=1;whiteSpace=wrap;connectable=0;fillColor=none;top=0;left=0;bottom=0;right=0;overflow=hidden;strokeColor=inherit;fontSize=16;" parent="TiiX26Bb1OiR6IXR6t6P-13" vertex="1">
                    <mxGeometry width="40" height="30" as="geometry">
                        <mxRectangle width="40" height="30" as="alternateBounds"/>
                    </mxGeometry>
                </mxCell>
                <mxCell id="TiiX26Bb1OiR6IXR6t6P-15" value="Telephone" style="shape=partialRectangle;html=1;whiteSpace=wrap;connectable=0;fillColor=none;top=0;left=0;bottom=0;right=0;align=left;spacingLeft=6;overflow=hidden;strokeColor=inherit;fontSize=16;" parent="TiiX26Bb1OiR6IXR6t6P-13" vertex="1">
                    <mxGeometry x="40" width="140" height="30" as="geometry">
                        <mxRectangle width="140" height="30" as="alternateBounds"/>
                    </mxGeometry>
                </mxCell>
                <mxCell id="TiiX26Bb1OiR6IXR6t6P-22" style="shape=tableRow;horizontal=0;startSize=0;swimlaneHead=0;swimlaneBody=0;top=0;left=0;bottom=0;right=0;collapsible=0;dropTarget=0;fillColor=none;points=[[0,0.5],[1,0.5]];portConstraint=eastwest;strokeColor=inherit;fontSize=16;" parent="TiiX26Bb1OiR6IXR6t6P-6" vertex="1">
                    <mxGeometry y="120" width="180" height="30" as="geometry"/>
                </mxCell>
                <mxCell id="TiiX26Bb1OiR6IXR6t6P-23" value="4" style="shape=partialRectangle;html=1;whiteSpace=wrap;connectable=0;fillColor=none;top=0;left=0;bottom=0;right=0;overflow=hidden;strokeColor=inherit;fontSize=16;" parent="TiiX26Bb1OiR6IXR6t6P-22" vertex="1">
                    <mxGeometry width="40" height="30" as="geometry">
                        <mxRectangle width="40" height="30" as="alternateBounds"/>
                    </mxGeometry>
                </mxCell>
                <mxCell id="TiiX26Bb1OiR6IXR6t6P-24" value="Productivity" style="shape=partialRectangle;html=1;whiteSpace=wrap;connectable=0;fillColor=none;top=0;left=0;bottom=0;right=0;align=left;spacingLeft=6;overflow=hidden;strokeColor=inherit;fontSize=16;" parent="TiiX26Bb1OiR6IXR6t6P-22" vertex="1">
                    <mxGeometry x="40" width="140" height="30" as="geometry">
                        <mxRectangle width="140" height="30" as="alternateBounds"/>
                    </mxGeometry>
                </mxCell>
                <mxCell id="35" style="shape=tableRow;horizontal=0;startSize=0;swimlaneHead=0;swimlaneBody=0;top=0;left=0;bottom=0;right=0;collapsible=0;dropTarget=0;fillColor=none;points=[[0,0.5],[1,0.5]];portConstraint=eastwest;strokeColor=inherit;fontSize=16;" vertex="1" parent="TiiX26Bb1OiR6IXR6t6P-6">
                    <mxGeometry y="150" width="180" height="30" as="geometry"/>
                </mxCell>
                <mxCell id="36" value="5" style="shape=partialRectangle;html=1;whiteSpace=wrap;connectable=0;fillColor=none;top=0;left=0;bottom=0;right=0;overflow=hidden;strokeColor=inherit;fontSize=16;" vertex="1" parent="35">
                    <mxGeometry width="40" height="30" as="geometry">
                        <mxRectangle width="40" height="30" as="alternateBounds"/>
                    </mxGeometry>
                </mxCell>
                <mxCell id="37" value="Climatization" style="shape=partialRectangle;html=1;whiteSpace=wrap;connectable=0;fillColor=none;top=0;left=0;bottom=0;right=0;align=left;spacingLeft=6;overflow=hidden;strokeColor=inherit;fontSize=16;" vertex="1" parent="35">
                    <mxGeometry x="40" width="140" height="30" as="geometry">
                        <mxRectangle width="140" height="30" as="alternateBounds"/>
                    </mxGeometry>
                </mxCell>
                <mxCell id="TiiX26Bb1OiR6IXR6t6P-25" style="shape=tableRow;horizontal=0;startSize=0;swimlaneHead=0;swimlaneBody=0;top=0;left=0;bottom=0;right=0;collapsible=0;dropTarget=0;fillColor=none;points=[[0,0.5],[1,0.5]];portConstraint=eastwest;strokeColor=inherit;fontSize=16;" parent="TiiX26Bb1OiR6IXR6t6P-6" vertex="1">
                    <mxGeometry y="180" width="180" height="30" as="geometry"/>
                </mxCell>
                <mxCell id="TiiX26Bb1OiR6IXR6t6P-26" value="-1" style="shape=partialRectangle;html=1;whiteSpace=wrap;connectable=0;fillColor=none;top=0;left=0;bottom=0;right=0;overflow=hidden;strokeColor=inherit;fontSize=16;" parent="TiiX26Bb1OiR6IXR6t6P-25" vertex="1">
                    <mxGeometry width="40" height="30" as="geometry">
                        <mxRectangle width="40" height="30" as="alternateBounds"/>
                    </mxGeometry>
                </mxCell>
                <mxCell id="TiiX26Bb1OiR6IXR6t6P-27" value="System Off" style="shape=partialRectangle;html=1;whiteSpace=wrap;connectable=0;fillColor=none;top=0;left=0;bottom=0;right=0;align=left;spacingLeft=6;overflow=hidden;strokeColor=inherit;fontSize=16;" parent="TiiX26Bb1OiR6IXR6t6P-25" vertex="1">
                    <mxGeometry x="40" width="140" height="30" as="geometry">
                        <mxRectangle width="140" height="30" as="alternateBounds"/>
                    </mxGeometry>
                </mxCell>
                <mxCell id="TiiX26Bb1OiR6IXR6t6P-28" value="Radio Menu" style="shape=table;startSize=30;container=1;collapsible=0;childLayout=tableLayout;fixedRows=1;rowLines=0;fontStyle=0;strokeColor=default;fontSize=16;" parent="1" vertex="1">
                    <mxGeometry x="-400" y="410" width="180" height="240" as="geometry"/>
                </mxCell>
                <mxCell id="TiiX26Bb1OiR6IXR6t6P-29" value="" style="shape=tableRow;horizontal=0;startSize=0;swimlaneHead=0;swimlaneBody=0;top=0;left=0;bottom=0;right=0;collapsible=0;dropTarget=0;fillColor=none;points=[[0,0.5],[1,0.5]];portConstraint=eastwest;strokeColor=inherit;fontSize=16;" parent="TiiX26Bb1OiR6IXR6t6P-28" vertex="1">
                    <mxGeometry y="30" width="180" height="30" as="geometry"/>
                </mxCell>
                <mxCell id="TiiX26Bb1OiR6IXR6t6P-30" value="1" style="shape=partialRectangle;html=1;whiteSpace=wrap;connectable=0;fillColor=none;top=0;left=0;bottom=0;right=0;overflow=hidden;pointerEvents=1;strokeColor=inherit;fontSize=16;" parent="TiiX26Bb1OiR6IXR6t6P-29" vertex="1">
                    <mxGeometry width="40" height="30" as="geometry">
                        <mxRectangle width="40" height="30" as="alternateBounds"/>
                    </mxGeometry>
                </mxCell>
                <mxCell id="TiiX26Bb1OiR6IXR6t6P-31" value="FM" style="shape=partialRectangle;html=1;whiteSpace=wrap;connectable=0;fillColor=none;top=0;left=0;bottom=0;right=0;align=left;spacingLeft=6;overflow=hidden;strokeColor=inherit;fontSize=16;" parent="TiiX26Bb1OiR6IXR6t6P-29" vertex="1">
                    <mxGeometry x="40" width="140" height="30" as="geometry">
                        <mxRectangle width="140" height="30" as="alternateBounds"/>
                    </mxGeometry>
                </mxCell>
                <mxCell id="TiiX26Bb1OiR6IXR6t6P-32" value="" style="shape=tableRow;horizontal=0;startSize=0;swimlaneHead=0;swimlaneBody=0;top=0;left=0;bottom=0;right=0;collapsible=0;dropTarget=0;fillColor=none;points=[[0,0.5],[1,0.5]];portConstraint=eastwest;strokeColor=inherit;fontSize=16;" parent="TiiX26Bb1OiR6IXR6t6P-28" vertex="1">
                    <mxGeometry y="60" width="180" height="30" as="geometry"/>
                </mxCell>
                <mxCell id="TiiX26Bb1OiR6IXR6t6P-33" value="2" style="shape=partialRectangle;html=1;whiteSpace=wrap;connectable=0;fillColor=none;top=0;left=0;bottom=0;right=0;overflow=hidden;strokeColor=inherit;fontSize=16;" parent="TiiX26Bb1OiR6IXR6t6P-32" vertex="1">
                    <mxGeometry width="40" height="30" as="geometry">
                        <mxRectangle width="40" height="30" as="alternateBounds"/>
                    </mxGeometry>
                </mxCell>
                <mxCell id="TiiX26Bb1OiR6IXR6t6P-34" value="AM" style="shape=partialRectangle;html=1;whiteSpace=wrap;connectable=0;fillColor=none;top=0;left=0;bottom=0;right=0;align=left;spacingLeft=6;overflow=hidden;strokeColor=inherit;fontSize=16;" parent="TiiX26Bb1OiR6IXR6t6P-32" vertex="1">
                    <mxGeometry x="40" width="140" height="30" as="geometry">
                        <mxRectangle width="140" height="30" as="alternateBounds"/>
                    </mxGeometry>
                </mxCell>
                <mxCell id="TiiX26Bb1OiR6IXR6t6P-35" value="" style="shape=tableRow;horizontal=0;startSize=0;swimlaneHead=0;swimlaneBody=0;top=0;left=0;bottom=0;right=0;collapsible=0;dropTarget=0;fillColor=none;points=[[0,0.5],[1,0.5]];portConstraint=eastwest;strokeColor=inherit;fontSize=16;" parent="TiiX26Bb1OiR6IXR6t6P-28" vertex="1">
                    <mxGeometry y="90" width="180" height="30" as="geometry"/>
                </mxCell>
                <mxCell id="TiiX26Bb1OiR6IXR6t6P-36" value="3" style="shape=partialRectangle;html=1;whiteSpace=wrap;connectable=0;fillColor=none;top=0;left=0;bottom=0;right=0;overflow=hidden;strokeColor=inherit;fontSize=16;" parent="TiiX26Bb1OiR6IXR6t6P-35" vertex="1">
                    <mxGeometry width="40" height="30" as="geometry">
                        <mxRectangle width="40" height="30" as="alternateBounds"/>
                    </mxGeometry>
                </mxCell>
                <mxCell id="TiiX26Bb1OiR6IXR6t6P-37" value="Load Favorite" style="shape=partialRectangle;html=1;whiteSpace=wrap;connectable=0;fillColor=none;top=0;left=0;bottom=0;right=0;align=left;spacingLeft=6;overflow=hidden;strokeColor=inherit;fontSize=16;" parent="TiiX26Bb1OiR6IXR6t6P-35" vertex="1">
                    <mxGeometry x="40" width="140" height="30" as="geometry">
                        <mxRectangle width="140" height="30" as="alternateBounds"/>
                    </mxGeometry>
                </mxCell>
                <mxCell id="TiiX26Bb1OiR6IXR6t6P-98" style="shape=tableRow;horizontal=0;startSize=0;swimlaneHead=0;swimlaneBody=0;top=0;left=0;bottom=0;right=0;collapsible=0;dropTarget=0;fillColor=none;points=[[0,0.5],[1,0.5]];portConstraint=eastwest;strokeColor=inherit;fontSize=16;" parent="TiiX26Bb1OiR6IXR6t6P-28" vertex="1">
                    <mxGeometry y="120" width="180" height="30" as="geometry"/>
                </mxCell>
                <mxCell id="TiiX26Bb1OiR6IXR6t6P-99" value="4" style="shape=partialRectangle;html=1;whiteSpace=wrap;connectable=0;fillColor=none;top=0;left=0;bottom=0;right=0;overflow=hidden;strokeColor=inherit;fontSize=16;" parent="TiiX26Bb1OiR6IXR6t6P-98" vertex="1">
                    <mxGeometry width="40" height="30" as="geometry">
                        <mxRectangle width="40" height="30" as="alternateBounds"/>
                    </mxGeometry>
                </mxCell>
                <mxCell id="TiiX26Bb1OiR6IXR6t6P-100" value="Increase +" style="shape=partialRectangle;html=1;whiteSpace=wrap;connectable=0;fillColor=none;top=0;left=0;bottom=0;right=0;align=left;spacingLeft=6;overflow=hidden;strokeColor=inherit;fontSize=16;" parent="TiiX26Bb1OiR6IXR6t6P-98" vertex="1">
                    <mxGeometry x="40" width="140" height="30" as="geometry">
                        <mxRectangle width="140" height="30" as="alternateBounds"/>
                    </mxGeometry>
                </mxCell>
                <mxCell id="TiiX26Bb1OiR6IXR6t6P-101" style="shape=tableRow;horizontal=0;startSize=0;swimlaneHead=0;swimlaneBody=0;top=0;left=0;bottom=0;right=0;collapsible=0;dropTarget=0;fillColor=none;points=[[0,0.5],[1,0.5]];portConstraint=eastwest;strokeColor=inherit;fontSize=16;" parent="TiiX26Bb1OiR6IXR6t6P-28" vertex="1">
                    <mxGeometry y="150" width="180" height="30" as="geometry"/>
                </mxCell>
                <mxCell id="TiiX26Bb1OiR6IXR6t6P-102" value="5" style="shape=partialRectangle;html=1;whiteSpace=wrap;connectable=0;fillColor=none;top=0;left=0;bottom=0;right=0;overflow=hidden;strokeColor=inherit;fontSize=16;" parent="TiiX26Bb1OiR6IXR6t6P-101" vertex="1">
                    <mxGeometry width="40" height="30" as="geometry">
                        <mxRectangle width="40" height="30" as="alternateBounds"/>
                    </mxGeometry>
                </mxCell>
                <mxCell id="TiiX26Bb1OiR6IXR6t6P-103" value="Decrease -" style="shape=partialRectangle;html=1;whiteSpace=wrap;connectable=0;fillColor=none;top=0;left=0;bottom=0;right=0;align=left;spacingLeft=6;overflow=hidden;strokeColor=inherit;fontSize=16;" parent="TiiX26Bb1OiR6IXR6t6P-101" vertex="1">
                    <mxGeometry x="40" width="140" height="30" as="geometry">
                        <mxRectangle width="140" height="30" as="alternateBounds"/>
                    </mxGeometry>
                </mxCell>
                <mxCell id="TiiX26Bb1OiR6IXR6t6P-104" style="shape=tableRow;horizontal=0;startSize=0;swimlaneHead=0;swimlaneBody=0;top=0;left=0;bottom=0;right=0;collapsible=0;dropTarget=0;fillColor=none;points=[[0,0.5],[1,0.5]];portConstraint=eastwest;strokeColor=inherit;fontSize=16;" parent="TiiX26Bb1OiR6IXR6t6P-28" vertex="1">
                    <mxGeometry y="180" width="180" height="30" as="geometry"/>
                </mxCell>
                <mxCell id="TiiX26Bb1OiR6IXR6t6P-105" value="6" style="shape=partialRectangle;html=1;whiteSpace=wrap;connectable=0;fillColor=none;top=0;left=0;bottom=0;right=0;overflow=hidden;strokeColor=inherit;fontSize=16;" parent="TiiX26Bb1OiR6IXR6t6P-104" vertex="1">
                    <mxGeometry width="40" height="30" as="geometry">
                        <mxRectangle width="40" height="30" as="alternateBounds"/>
                    </mxGeometry>
                </mxCell>
                <mxCell id="TiiX26Bb1OiR6IXR6t6P-106" value="New Favorite" style="shape=partialRectangle;html=1;whiteSpace=wrap;connectable=0;fillColor=none;top=0;left=0;bottom=0;right=0;align=left;spacingLeft=6;overflow=hidden;strokeColor=inherit;fontSize=16;" parent="TiiX26Bb1OiR6IXR6t6P-104" vertex="1">
                    <mxGeometry x="40" width="140" height="30" as="geometry">
                        <mxRectangle width="140" height="30" as="alternateBounds"/>
                    </mxGeometry>
                </mxCell>
                <mxCell id="TiiX26Bb1OiR6IXR6t6P-107" style="shape=tableRow;horizontal=0;startSize=0;swimlaneHead=0;swimlaneBody=0;top=0;left=0;bottom=0;right=0;collapsible=0;dropTarget=0;fillColor=none;points=[[0,0.5],[1,0.5]];portConstraint=eastwest;strokeColor=inherit;fontSize=16;" parent="TiiX26Bb1OiR6IXR6t6P-28" vertex="1">
                    <mxGeometry y="210" width="180" height="30" as="geometry"/>
                </mxCell>
                <mxCell id="TiiX26Bb1OiR6IXR6t6P-108" value="0" style="shape=partialRectangle;html=1;whiteSpace=wrap;connectable=0;fillColor=none;top=0;left=0;bottom=0;right=0;overflow=hidden;strokeColor=inherit;fontSize=16;" parent="TiiX26Bb1OiR6IXR6t6P-107" vertex="1">
                    <mxGeometry width="40" height="30" as="geometry">
                        <mxRectangle width="40" height="30" as="alternateBounds"/>
                    </mxGeometry>
                </mxCell>
                <mxCell id="TiiX26Bb1OiR6IXR6t6P-109" value="Goto Main Menu" style="shape=partialRectangle;html=1;whiteSpace=wrap;connectable=0;fillColor=none;top=0;left=0;bottom=0;right=0;align=left;spacingLeft=6;overflow=hidden;strokeColor=inherit;fontSize=16;" parent="TiiX26Bb1OiR6IXR6t6P-107" vertex="1">
                    <mxGeometry x="40" width="140" height="30" as="geometry">
                        <mxRectangle width="140" height="30" as="alternateBounds"/>
                    </mxGeometry>
                </mxCell>
                <mxCell id="TiiX26Bb1OiR6IXR6t6P-39" value="Personal Audio" style="shape=table;startSize=30;container=1;collapsible=0;childLayout=tableLayout;fixedRows=1;rowLines=0;fontStyle=0;strokeColor=default;fontSize=16;" parent="1" vertex="1">
                    <mxGeometry x="85" y="780" width="280" height="180" as="geometry"/>
                </mxCell>
                <mxCell id="TiiX26Bb1OiR6IXR6t6P-40" value="" style="shape=tableRow;horizontal=0;startSize=0;swimlaneHead=0;swimlaneBody=0;top=0;left=0;bottom=0;right=0;collapsible=0;dropTarget=0;fillColor=none;points=[[0,0.5],[1,0.5]];portConstraint=eastwest;strokeColor=inherit;fontSize=16;" parent="TiiX26Bb1OiR6IXR6t6P-39" vertex="1">
                    <mxGeometry y="30" width="280" height="30" as="geometry"/>
                </mxCell>
                <mxCell id="TiiX26Bb1OiR6IXR6t6P-41" value="1" style="shape=partialRectangle;html=1;whiteSpace=wrap;connectable=0;fillColor=none;top=0;left=0;bottom=0;right=0;overflow=hidden;pointerEvents=1;strokeColor=inherit;fontSize=16;" parent="TiiX26Bb1OiR6IXR6t6P-40" vertex="1">
                    <mxGeometry width="62" height="30" as="geometry">
                        <mxRectangle width="62" height="30" as="alternateBounds"/>
                    </mxGeometry>
                </mxCell>
                <mxCell id="TiiX26Bb1OiR6IXR6t6P-42" value="Mode List" style="shape=partialRectangle;html=1;whiteSpace=wrap;connectable=0;fillColor=none;top=0;left=0;bottom=0;right=0;align=left;spacingLeft=6;overflow=hidden;strokeColor=inherit;fontSize=16;" parent="TiiX26Bb1OiR6IXR6t6P-40" vertex="1">
                    <mxGeometry x="62" width="218" height="30" as="geometry">
                        <mxRectangle width="218" height="30" as="alternateBounds"/>
                    </mxGeometry>
                </mxCell>
                <mxCell id="TiiX26Bb1OiR6IXR6t6P-46" value="" style="shape=tableRow;horizontal=0;startSize=0;swimlaneHead=0;swimlaneBody=0;top=0;left=0;bottom=0;right=0;collapsible=0;dropTarget=0;fillColor=none;points=[[0,0.5],[1,0.5]];portConstraint=eastwest;strokeColor=inherit;fontSize=16;" parent="TiiX26Bb1OiR6IXR6t6P-39" vertex="1">
                    <mxGeometry y="60" width="280" height="30" as="geometry"/>
                </mxCell>
                <mxCell id="TiiX26Bb1OiR6IXR6t6P-47" value="2" style="shape=partialRectangle;html=1;whiteSpace=wrap;connectable=0;fillColor=none;top=0;left=0;bottom=0;right=0;overflow=hidden;strokeColor=inherit;fontSize=16;" parent="TiiX26Bb1OiR6IXR6t6P-46" vertex="1">
                    <mxGeometry width="62" height="30" as="geometry">
                        <mxRectangle width="62" height="30" as="alternateBounds"/>
                    </mxGeometry>
                </mxCell>
                <mxCell id="TiiX26Bb1OiR6IXR6t6P-48" value="Move Up Song" style="shape=partialRectangle;html=1;whiteSpace=wrap;connectable=0;fillColor=none;top=0;left=0;bottom=0;right=0;align=left;spacingLeft=6;overflow=hidden;strokeColor=inherit;fontSize=16;" parent="TiiX26Bb1OiR6IXR6t6P-46" vertex="1">
                    <mxGeometry x="62" width="218" height="30" as="geometry">
                        <mxRectangle width="218" height="30" as="alternateBounds"/>
                    </mxGeometry>
                </mxCell>
                <mxCell id="TiiX26Bb1OiR6IXR6t6P-111" style="shape=tableRow;horizontal=0;startSize=0;swimlaneHead=0;swimlaneBody=0;top=0;left=0;bottom=0;right=0;collapsible=0;dropTarget=0;fillColor=none;points=[[0,0.5],[1,0.5]];portConstraint=eastwest;strokeColor=inherit;fontSize=16;" parent="TiiX26Bb1OiR6IXR6t6P-39" vertex="1">
                    <mxGeometry y="90" width="280" height="30" as="geometry"/>
                </mxCell>
                <mxCell id="TiiX26Bb1OiR6IXR6t6P-112" value="3" style="shape=partialRectangle;html=1;whiteSpace=wrap;connectable=0;fillColor=none;top=0;left=0;bottom=0;right=0;overflow=hidden;strokeColor=inherit;fontSize=16;" parent="TiiX26Bb1OiR6IXR6t6P-111" vertex="1">
                    <mxGeometry width="62" height="30" as="geometry">
                        <mxRectangle width="62" height="30" as="alternateBounds"/>
                    </mxGeometry>
                </mxCell>
                <mxCell id="TiiX26Bb1OiR6IXR6t6P-113" value="Move Down Song" style="shape=partialRectangle;html=1;whiteSpace=wrap;connectable=0;fillColor=none;top=0;left=0;bottom=0;right=0;align=left;spacingLeft=6;overflow=hidden;strokeColor=inherit;fontSize=16;" parent="TiiX26Bb1OiR6IXR6t6P-111" vertex="1">
                    <mxGeometry x="62" width="218" height="30" as="geometry">
                        <mxRectangle width="218" height="30" as="alternateBounds"/>
                    </mxGeometry>
                </mxCell>
                <mxCell id="TiiX26Bb1OiR6IXR6t6P-127" style="shape=tableRow;horizontal=0;startSize=0;swimlaneHead=0;swimlaneBody=0;top=0;left=0;bottom=0;right=0;collapsible=0;dropTarget=0;fillColor=none;points=[[0,0.5],[1,0.5]];portConstraint=eastwest;strokeColor=inherit;fontSize=16;" parent="TiiX26Bb1OiR6IXR6t6P-39" vertex="1">
                    <mxGeometry y="120" width="280" height="30" as="geometry"/>
                </mxCell>
                <mxCell id="TiiX26Bb1OiR6IXR6t6P-128" value="4" style="shape=partialRectangle;html=1;whiteSpace=wrap;connectable=0;fillColor=none;top=0;left=0;bottom=0;right=0;overflow=hidden;strokeColor=inherit;fontSize=16;" parent="TiiX26Bb1OiR6IXR6t6P-127" vertex="1">
                    <mxGeometry width="62" height="30" as="geometry">
                        <mxRectangle width="62" height="30" as="alternateBounds"/>
                    </mxGeometry>
                </mxCell>
                <mxCell id="TiiX26Bb1OiR6IXR6t6P-129" value="Listen to Song (show song)" style="shape=partialRectangle;html=1;whiteSpace=wrap;connectable=0;fillColor=none;top=0;left=0;bottom=0;right=0;align=left;spacingLeft=6;overflow=hidden;strokeColor=inherit;fontSize=16;" parent="TiiX26Bb1OiR6IXR6t6P-127" vertex="1">
                    <mxGeometry x="62" width="218" height="30" as="geometry">
                        <mxRectangle width="218" height="30" as="alternateBounds"/>
                    </mxGeometry>
                </mxCell>
                <mxCell id="TiiX26Bb1OiR6IXR6t6P-130" style="shape=tableRow;horizontal=0;startSize=0;swimlaneHead=0;swimlaneBody=0;top=0;left=0;bottom=0;right=0;collapsible=0;dropTarget=0;fillColor=none;points=[[0,0.5],[1,0.5]];portConstraint=eastwest;strokeColor=inherit;fontSize=16;" parent="TiiX26Bb1OiR6IXR6t6P-39" vertex="1">
                    <mxGeometry y="150" width="280" height="30" as="geometry"/>
                </mxCell>
                <mxCell id="TiiX26Bb1OiR6IXR6t6P-131" value="0" style="shape=partialRectangle;html=1;whiteSpace=wrap;connectable=0;fillColor=none;top=0;left=0;bottom=0;right=0;overflow=hidden;strokeColor=inherit;fontSize=16;" parent="TiiX26Bb1OiR6IXR6t6P-130" vertex="1">
                    <mxGeometry width="62" height="30" as="geometry">
                        <mxRectangle width="62" height="30" as="alternateBounds"/>
                    </mxGeometry>
                </mxCell>
                <mxCell id="TiiX26Bb1OiR6IXR6t6P-132" value="Goto Main Menu" style="shape=partialRectangle;html=1;whiteSpace=wrap;connectable=0;fillColor=none;top=0;left=0;bottom=0;right=0;align=left;spacingLeft=6;overflow=hidden;strokeColor=inherit;fontSize=16;" parent="TiiX26Bb1OiR6IXR6t6P-130" vertex="1">
                    <mxGeometry x="62" width="218" height="30" as="geometry">
                        <mxRectangle width="218" height="30" as="alternateBounds"/>
                    </mxGeometry>
                </mxCell>
                <mxCell id="TiiX26Bb1OiR6IXR6t6P-50" value="Mobile" style="shape=table;startSize=30;container=1;collapsible=0;childLayout=tableLayout;fixedRows=1;rowLines=0;fontStyle=0;strokeColor=default;fontSize=16;" parent="1" vertex="1">
                    <mxGeometry x="650" y="810" width="230" height="240" as="geometry"/>
                </mxCell>
                <mxCell id="TiiX26Bb1OiR6IXR6t6P-51" value="" style="shape=tableRow;horizontal=0;startSize=0;swimlaneHead=0;swimlaneBody=0;top=0;left=0;bottom=0;right=0;collapsible=0;dropTarget=0;fillColor=none;points=[[0,0.5],[1,0.5]];portConstraint=eastwest;strokeColor=inherit;fontSize=16;" parent="TiiX26Bb1OiR6IXR6t6P-50" vertex="1">
                    <mxGeometry y="30" width="230" height="30" as="geometry"/>
                </mxCell>
                <mxCell id="TiiX26Bb1OiR6IXR6t6P-52" value="1" style="shape=partialRectangle;html=1;whiteSpace=wrap;connectable=0;fillColor=none;top=0;left=0;bottom=0;right=0;overflow=hidden;pointerEvents=1;strokeColor=inherit;fontSize=16;" parent="TiiX26Bb1OiR6IXR6t6P-51" vertex="1">
                    <mxGeometry width="51" height="30" as="geometry">
                        <mxRectangle width="51" height="30" as="alternateBounds"/>
                    </mxGeometry>
                </mxCell>
                <mxCell id="TiiX26Bb1OiR6IXR6t6P-53" value="Connect Telephone" style="shape=partialRectangle;html=1;whiteSpace=wrap;connectable=0;fillColor=none;top=0;left=0;bottom=0;right=0;align=left;spacingLeft=6;overflow=hidden;strokeColor=inherit;fontSize=16;" parent="TiiX26Bb1OiR6IXR6t6P-51" vertex="1">
                    <mxGeometry x="51" width="179" height="30" as="geometry">
                        <mxRectangle width="179" height="30" as="alternateBounds"/>
                    </mxGeometry>
                </mxCell>
                <mxCell id="TiiX26Bb1OiR6IXR6t6P-54" value="" style="shape=tableRow;horizontal=0;startSize=0;swimlaneHead=0;swimlaneBody=0;top=0;left=0;bottom=0;right=0;collapsible=0;dropTarget=0;fillColor=none;points=[[0,0.5],[1,0.5]];portConstraint=eastwest;strokeColor=inherit;fontSize=16;" parent="TiiX26Bb1OiR6IXR6t6P-50" vertex="1">
                    <mxGeometry y="60" width="230" height="30" as="geometry"/>
                </mxCell>
                <mxCell id="TiiX26Bb1OiR6IXR6t6P-55" value="2" style="shape=partialRectangle;html=1;whiteSpace=wrap;connectable=0;fillColor=none;top=0;left=0;bottom=0;right=0;overflow=hidden;strokeColor=inherit;fontSize=16;" parent="TiiX26Bb1OiR6IXR6t6P-54" vertex="1">
                    <mxGeometry width="51" height="30" as="geometry">
                        <mxRectangle width="51" height="30" as="alternateBounds"/>
                    </mxGeometry>
                </mxCell>
                <mxCell id="TiiX26Bb1OiR6IXR6t6P-56" value="Disconnect Telephone" style="shape=partialRectangle;html=1;whiteSpace=wrap;connectable=0;fillColor=none;top=0;left=0;bottom=0;right=0;align=left;spacingLeft=6;overflow=hidden;strokeColor=inherit;fontSize=16;" parent="TiiX26Bb1OiR6IXR6t6P-54" vertex="1">
                    <mxGeometry x="51" width="179" height="30" as="geometry">
                        <mxRectangle width="179" height="30" as="alternateBounds"/>
                    </mxGeometry>
                </mxCell>
                <mxCell id="TiiX26Bb1OiR6IXR6t6P-57" value="" style="shape=tableRow;horizontal=0;startSize=0;swimlaneHead=0;swimlaneBody=0;top=0;left=0;bottom=0;right=0;collapsible=0;dropTarget=0;fillColor=none;points=[[0,0.5],[1,0.5]];portConstraint=eastwest;strokeColor=inherit;fontSize=16;" parent="TiiX26Bb1OiR6IXR6t6P-50" vertex="1">
                    <mxGeometry y="90" width="230" height="30" as="geometry"/>
                </mxCell>
                <mxCell id="TiiX26Bb1OiR6IXR6t6P-58" value="3" style="shape=partialRectangle;html=1;whiteSpace=wrap;connectable=0;fillColor=none;top=0;left=0;bottom=0;right=0;overflow=hidden;strokeColor=inherit;fontSize=16;" parent="TiiX26Bb1OiR6IXR6t6P-57" vertex="1">
                    <mxGeometry width="51" height="30" as="geometry">
                        <mxRectangle width="51" height="30" as="alternateBounds"/>
                    </mxGeometry>
                </mxCell>
                <mxCell id="TiiX26Bb1OiR6IXR6t6P-59" value="Show Contacts" style="shape=partialRectangle;html=1;whiteSpace=wrap;connectable=0;fillColor=none;top=0;left=0;bottom=0;right=0;align=left;spacingLeft=6;overflow=hidden;strokeColor=inherit;fontSize=16;" parent="TiiX26Bb1OiR6IXR6t6P-57" vertex="1">
                    <mxGeometry x="51" width="179" height="30" as="geometry">
                        <mxRectangle width="179" height="30" as="alternateBounds"/>
                    </mxGeometry>
                </mxCell>
                <mxCell id="TiiX26Bb1OiR6IXR6t6P-133" style="shape=tableRow;horizontal=0;startSize=0;swimlaneHead=0;swimlaneBody=0;top=0;left=0;bottom=0;right=0;collapsible=0;dropTarget=0;fillColor=none;points=[[0,0.5],[1,0.5]];portConstraint=eastwest;strokeColor=inherit;fontSize=16;" parent="TiiX26Bb1OiR6IXR6t6P-50" vertex="1">
                    <mxGeometry y="120" width="230" height="30" as="geometry"/>
                </mxCell>
                <mxCell id="TiiX26Bb1OiR6IXR6t6P-134" value="4" style="shape=partialRectangle;html=1;whiteSpace=wrap;connectable=0;fillColor=none;top=0;left=0;bottom=0;right=0;overflow=hidden;strokeColor=inherit;fontSize=16;" parent="TiiX26Bb1OiR6IXR6t6P-133" vertex="1">
                    <mxGeometry width="51" height="30" as="geometry">
                        <mxRectangle width="51" height="30" as="alternateBounds"/>
                    </mxGeometry>
                </mxCell>
                <mxCell id="TiiX26Bb1OiR6IXR6t6P-135" value="Call Contact" style="shape=partialRectangle;html=1;whiteSpace=wrap;connectable=0;fillColor=none;top=0;left=0;bottom=0;right=0;align=left;spacingLeft=6;overflow=hidden;strokeColor=inherit;fontSize=16;" parent="TiiX26Bb1OiR6IXR6t6P-133" vertex="1">
                    <mxGeometry x="51" width="179" height="30" as="geometry">
                        <mxRectangle width="179" height="30" as="alternateBounds"/>
                    </mxGeometry>
                </mxCell>
                <mxCell id="TiiX26Bb1OiR6IXR6t6P-136" style="shape=tableRow;horizontal=0;startSize=0;swimlaneHead=0;swimlaneBody=0;top=0;left=0;bottom=0;right=0;collapsible=0;dropTarget=0;fillColor=none;points=[[0,0.5],[1,0.5]];portConstraint=eastwest;strokeColor=inherit;fontSize=16;" parent="TiiX26Bb1OiR6IXR6t6P-50" vertex="1">
                    <mxGeometry y="150" width="230" height="30" as="geometry"/>
                </mxCell>
                <mxCell id="TiiX26Bb1OiR6IXR6t6P-137" value="5" style="shape=partialRectangle;html=1;whiteSpace=wrap;connectable=0;fillColor=none;top=0;left=0;bottom=0;right=0;overflow=hidden;strokeColor=inherit;fontSize=16;" parent="TiiX26Bb1OiR6IXR6t6P-136" vertex="1">
                    <mxGeometry width="51" height="30" as="geometry">
                        <mxRectangle width="51" height="30" as="alternateBounds"/>
                    </mxGeometry>
                </mxCell>
                <mxCell id="TiiX26Bb1OiR6IXR6t6P-138" value="End Contact call" style="shape=partialRectangle;html=1;whiteSpace=wrap;connectable=0;fillColor=none;top=0;left=0;bottom=0;right=0;align=left;spacingLeft=6;overflow=hidden;strokeColor=inherit;fontSize=16;" parent="TiiX26Bb1OiR6IXR6t6P-136" vertex="1">
                    <mxGeometry x="51" width="179" height="30" as="geometry">
                        <mxRectangle width="179" height="30" as="alternateBounds"/>
                    </mxGeometry>
                </mxCell>
                <mxCell id="TiiX26Bb1OiR6IXR6t6P-139" style="shape=tableRow;horizontal=0;startSize=0;swimlaneHead=0;swimlaneBody=0;top=0;left=0;bottom=0;right=0;collapsible=0;dropTarget=0;fillColor=none;points=[[0,0.5],[1,0.5]];portConstraint=eastwest;strokeColor=inherit;fontSize=16;" parent="TiiX26Bb1OiR6IXR6t6P-50" vertex="1">
                    <mxGeometry y="180" width="230" height="30" as="geometry"/>
                </mxCell>
                <mxCell id="TiiX26Bb1OiR6IXR6t6P-140" value="6" style="shape=partialRectangle;html=1;whiteSpace=wrap;connectable=0;fillColor=none;top=0;left=0;bottom=0;right=0;overflow=hidden;strokeColor=inherit;fontSize=16;" parent="TiiX26Bb1OiR6IXR6t6P-139" vertex="1">
                    <mxGeometry width="51" height="30" as="geometry">
                        <mxRectangle width="51" height="30" as="alternateBounds"/>
                    </mxGeometry>
                </mxCell>
                <mxCell id="TiiX26Bb1OiR6IXR6t6P-141" value="Speaker/Headphones*" style="shape=partialRectangle;html=1;whiteSpace=wrap;connectable=0;fillColor=none;top=0;left=0;bottom=0;right=0;align=left;spacingLeft=6;overflow=hidden;strokeColor=inherit;fontSize=16;" parent="TiiX26Bb1OiR6IXR6t6P-139" vertex="1">
                    <mxGeometry x="51" width="179" height="30" as="geometry">
                        <mxRectangle width="179" height="30" as="alternateBounds"/>
                    </mxGeometry>
                </mxCell>
                <mxCell id="TiiX26Bb1OiR6IXR6t6P-142" style="shape=tableRow;horizontal=0;startSize=0;swimlaneHead=0;swimlaneBody=0;top=0;left=0;bottom=0;right=0;collapsible=0;dropTarget=0;fillColor=none;points=[[0,0.5],[1,0.5]];portConstraint=eastwest;strokeColor=inherit;fontSize=16;" parent="TiiX26Bb1OiR6IXR6t6P-50" vertex="1">
                    <mxGeometry y="210" width="230" height="30" as="geometry"/>
                </mxCell>
                <mxCell id="TiiX26Bb1OiR6IXR6t6P-143" value="0" style="shape=partialRectangle;html=1;whiteSpace=wrap;connectable=0;fillColor=none;top=0;left=0;bottom=0;right=0;overflow=hidden;strokeColor=inherit;fontSize=16;" parent="TiiX26Bb1OiR6IXR6t6P-142" vertex="1">
                    <mxGeometry width="51" height="30" as="geometry">
                        <mxRectangle width="51" height="30" as="alternateBounds"/>
                    </mxGeometry>
                </mxCell>
                <mxCell id="TiiX26Bb1OiR6IXR6t6P-144" value="Goto Main Menu" style="shape=partialRectangle;html=1;whiteSpace=wrap;connectable=0;fillColor=none;top=0;left=0;bottom=0;right=0;align=left;spacingLeft=6;overflow=hidden;strokeColor=inherit;fontSize=16;" parent="TiiX26Bb1OiR6IXR6t6P-142" vertex="1">
                    <mxGeometry x="51" width="179" height="30" as="geometry">
                        <mxRectangle width="179" height="30" as="alternateBounds"/>
                    </mxGeometry>
                </mxCell>
                <mxCell id="TiiX26Bb1OiR6IXR6t6P-61" value="Productivity" style="shape=table;startSize=30;container=1;collapsible=0;childLayout=tableLayout;fixedRows=1;rowLines=0;fontStyle=0;strokeColor=default;fontSize=16;" parent="1" vertex="1">
                    <mxGeometry x="1210" y="390" width="180" height="90" as="geometry"/>
                </mxCell>
                <mxCell id="TiiX26Bb1OiR6IXR6t6P-62" value="" style="shape=tableRow;horizontal=0;startSize=0;swimlaneHead=0;swimlaneBody=0;top=0;left=0;bottom=0;right=0;collapsible=0;dropTarget=0;fillColor=none;points=[[0,0.5],[1,0.5]];portConstraint=eastwest;strokeColor=inherit;fontSize=16;" parent="TiiX26Bb1OiR6IXR6t6P-61" vertex="1">
                    <mxGeometry y="30" width="180" height="30" as="geometry"/>
                </mxCell>
                <mxCell id="TiiX26Bb1OiR6IXR6t6P-63" value="1" style="shape=partialRectangle;html=1;whiteSpace=wrap;connectable=0;fillColor=none;top=0;left=0;bottom=0;right=0;overflow=hidden;pointerEvents=1;strokeColor=inherit;fontSize=16;" parent="TiiX26Bb1OiR6IXR6t6P-62" vertex="1">
                    <mxGeometry width="40" height="30" as="geometry">
                        <mxRectangle width="40" height="30" as="alternateBounds"/>
                    </mxGeometry>
                </mxCell>
                <mxCell id="TiiX26Bb1OiR6IXR6t6P-64" value="Start Trip*" style="shape=partialRectangle;html=1;whiteSpace=wrap;connectable=0;fillColor=none;top=0;left=0;bottom=0;right=0;align=left;spacingLeft=6;overflow=hidden;strokeColor=inherit;fontSize=16;" parent="TiiX26Bb1OiR6IXR6t6P-62" vertex="1">
                    <mxGeometry x="40" width="140" height="30" as="geometry">
                        <mxRectangle width="140" height="30" as="alternateBounds"/>
                    </mxGeometry>
                </mxCell>
                <mxCell id="TiiX26Bb1OiR6IXR6t6P-65" value="" style="shape=tableRow;horizontal=0;startSize=0;swimlaneHead=0;swimlaneBody=0;top=0;left=0;bottom=0;right=0;collapsible=0;dropTarget=0;fillColor=none;points=[[0,0.5],[1,0.5]];portConstraint=eastwest;strokeColor=inherit;fontSize=16;" parent="TiiX26Bb1OiR6IXR6t6P-61" vertex="1">
                    <mxGeometry y="60" width="180" height="30" as="geometry"/>
                </mxCell>
                <mxCell id="TiiX26Bb1OiR6IXR6t6P-66" value="0" style="shape=partialRectangle;html=1;whiteSpace=wrap;connectable=0;fillColor=none;top=0;left=0;bottom=0;right=0;overflow=hidden;strokeColor=inherit;fontSize=16;" parent="TiiX26Bb1OiR6IXR6t6P-65" vertex="1">
                    <mxGeometry width="40" height="30" as="geometry">
                        <mxRectangle width="40" height="30" as="alternateBounds"/>
                    </mxGeometry>
                </mxCell>
                <mxCell id="TiiX26Bb1OiR6IXR6t6P-67" value="Goto Menu" style="shape=partialRectangle;html=1;whiteSpace=wrap;connectable=0;fillColor=none;top=0;left=0;bottom=0;right=0;align=left;spacingLeft=6;overflow=hidden;strokeColor=inherit;fontSize=16;" parent="TiiX26Bb1OiR6IXR6t6P-65" vertex="1">
                    <mxGeometry x="40" width="140" height="30" as="geometry">
                        <mxRectangle width="140" height="30" as="alternateBounds"/>
                    </mxGeometry>
                </mxCell>
                <UserObject label="1 --&amp;gt; Radio" placeholders="1" name="Variable" id="TiiX26Bb1OiR6IXR6t6P-72">
                    <mxCell style="text;html=1;strokeColor=none;fillColor=none;align=center;verticalAlign=middle;whiteSpace=wrap;overflow=hidden;" parent="1" vertex="1">
                        <mxGeometry x="-300" y="330" width="80" height="20" as="geometry"/>
                    </mxCell>
                </UserObject>
                <UserObject label="2 --&amp;gt; personal audio" placeholders="1" name="Variable" id="TiiX26Bb1OiR6IXR6t6P-73">
                    <mxCell style="text;html=1;strokeColor=none;fillColor=none;align=center;verticalAlign=middle;whiteSpace=wrap;overflow=hidden;" parent="1" vertex="1">
                        <mxGeometry x="205" y="510" width="125" height="20" as="geometry"/>
                    </mxCell>
                </UserObject>
                <UserObject label="3 --&amp;gt; Telephone" placeholders="1" name="Variable" id="TiiX26Bb1OiR6IXR6t6P-74">
                    <mxCell style="text;html=1;strokeColor=none;fillColor=none;align=center;verticalAlign=middle;whiteSpace=wrap;overflow=hidden;" parent="1" vertex="1">
                        <mxGeometry x="645" y="510" width="125" height="20" as="geometry"/>
                    </mxCell>
                </UserObject>
                <UserObject label="4 --&amp;gt; Productivity" placeholders="1" name="Variable" id="TiiX26Bb1OiR6IXR6t6P-75">
                    <mxCell style="text;html=1;strokeColor=none;fillColor=none;align=center;verticalAlign=middle;whiteSpace=wrap;overflow=hidden;" parent="1" vertex="1">
                        <mxGeometry x="1120" y="330" width="125" height="20" as="geometry"/>
                    </mxCell>
                </UserObject>
                <mxCell id="TiiX26Bb1OiR6IXR6t6P-145" value="Current Radio Station: ##.#" style="shape=callout;whiteSpace=wrap;html=1;perimeter=calloutPerimeter;" parent="1" vertex="1">
                    <mxGeometry x="-450" y="330" width="120" height="80" as="geometry"/>
                </mxCell>
                <mxCell id="TiiX26Bb1OiR6IXR6t6P-146" value="Load Favorites:" style="shape=table;startSize=30;container=1;collapsible=0;childLayout=tableLayout;fixedRows=1;rowLines=0;fontStyle=0;strokeColor=default;fontSize=16;" parent="1" vertex="1">
                    <mxGeometry x="-810" y="740" width="200" height="180" as="geometry"/>
                </mxCell>
                <mxCell id="TiiX26Bb1OiR6IXR6t6P-147" value="" style="shape=tableRow;horizontal=0;startSize=0;swimlaneHead=0;swimlaneBody=0;top=0;left=0;bottom=0;right=0;collapsible=0;dropTarget=0;fillColor=none;points=[[0,0.5],[1,0.5]];portConstraint=eastwest;strokeColor=inherit;fontSize=16;" parent="TiiX26Bb1OiR6IXR6t6P-146" vertex="1">
                    <mxGeometry y="30" width="200" height="30" as="geometry"/>
                </mxCell>
                <mxCell id="TiiX26Bb1OiR6IXR6t6P-148" value="1" style="shape=partialRectangle;html=1;whiteSpace=wrap;connectable=0;fillColor=none;top=0;left=0;bottom=0;right=0;overflow=hidden;pointerEvents=1;strokeColor=inherit;fontSize=16;" parent="TiiX26Bb1OiR6IXR6t6P-147" vertex="1">
                    <mxGeometry width="44" height="30" as="geometry">
                        <mxRectangle width="44" height="30" as="alternateBounds"/>
                    </mxGeometry>
                </mxCell>
                <mxCell id="TiiX26Bb1OiR6IXR6t6P-149" value="Station Frequency" style="shape=partialRectangle;html=1;whiteSpace=wrap;connectable=0;fillColor=none;top=0;left=0;bottom=0;right=0;align=left;spacingLeft=6;overflow=hidden;strokeColor=inherit;fontSize=16;" parent="TiiX26Bb1OiR6IXR6t6P-147" vertex="1">
                    <mxGeometry x="44" width="156" height="30" as="geometry">
                        <mxRectangle width="156" height="30" as="alternateBounds"/>
                    </mxGeometry>
                </mxCell>
                <mxCell id="TiiX26Bb1OiR6IXR6t6P-150" value="" style="shape=tableRow;horizontal=0;startSize=0;swimlaneHead=0;swimlaneBody=0;top=0;left=0;bottom=0;right=0;collapsible=0;dropTarget=0;fillColor=none;points=[[0,0.5],[1,0.5]];portConstraint=eastwest;strokeColor=inherit;fontSize=16;" parent="TiiX26Bb1OiR6IXR6t6P-146" vertex="1">
                    <mxGeometry y="60" width="200" height="30" as="geometry"/>
                </mxCell>
                <mxCell id="TiiX26Bb1OiR6IXR6t6P-151" value="2" style="shape=partialRectangle;html=1;whiteSpace=wrap;connectable=0;fillColor=none;top=0;left=0;bottom=0;right=0;overflow=hidden;strokeColor=inherit;fontSize=16;" parent="TiiX26Bb1OiR6IXR6t6P-150" vertex="1">
                    <mxGeometry width="44" height="30" as="geometry">
                        <mxRectangle width="44" height="30" as="alternateBounds"/>
                    </mxGeometry>
                </mxCell>
                <mxCell id="TiiX26Bb1OiR6IXR6t6P-152" value="Station Frequency" style="shape=partialRectangle;html=1;whiteSpace=wrap;connectable=0;fillColor=none;top=0;left=0;bottom=0;right=0;align=left;spacingLeft=6;overflow=hidden;strokeColor=inherit;fontSize=16;" parent="TiiX26Bb1OiR6IXR6t6P-150" vertex="1">
                    <mxGeometry x="44" width="156" height="30" as="geometry">
                        <mxRectangle width="156" height="30" as="alternateBounds"/>
                    </mxGeometry>
                </mxCell>
                <mxCell id="TiiX26Bb1OiR6IXR6t6P-156" style="shape=tableRow;horizontal=0;startSize=0;swimlaneHead=0;swimlaneBody=0;top=0;left=0;bottom=0;right=0;collapsible=0;dropTarget=0;fillColor=none;points=[[0,0.5],[1,0.5]];portConstraint=eastwest;strokeColor=inherit;fontSize=16;" parent="TiiX26Bb1OiR6IXR6t6P-146" vertex="1">
                    <mxGeometry y="90" width="200" height="30" as="geometry"/>
                </mxCell>
                <mxCell id="TiiX26Bb1OiR6IXR6t6P-157" style="shape=partialRectangle;html=1;whiteSpace=wrap;connectable=0;fillColor=none;top=0;left=0;bottom=0;right=0;overflow=hidden;strokeColor=inherit;fontSize=16;" parent="TiiX26Bb1OiR6IXR6t6P-156" vertex="1">
                    <mxGeometry width="44" height="30" as="geometry">
                        <mxRectangle width="44" height="30" as="alternateBounds"/>
                    </mxGeometry>
                </mxCell>
                <mxCell id="TiiX26Bb1OiR6IXR6t6P-158" value="..." style="shape=partialRectangle;html=1;whiteSpace=wrap;connectable=0;fillColor=none;top=0;left=0;bottom=0;right=0;align=left;spacingLeft=6;overflow=hidden;strokeColor=inherit;fontSize=16;" parent="TiiX26Bb1OiR6IXR6t6P-156" vertex="1">
                    <mxGeometry x="44" width="156" height="30" as="geometry">
                        <mxRectangle width="156" height="30" as="alternateBounds"/>
                    </mxGeometry>
                </mxCell>
                <mxCell id="TiiX26Bb1OiR6IXR6t6P-153" value="" style="shape=tableRow;horizontal=0;startSize=0;swimlaneHead=0;swimlaneBody=0;top=0;left=0;bottom=0;right=0;collapsible=0;dropTarget=0;fillColor=none;points=[[0,0.5],[1,0.5]];portConstraint=eastwest;strokeColor=inherit;fontSize=16;" parent="TiiX26Bb1OiR6IXR6t6P-146" vertex="1">
                    <mxGeometry y="120" width="200" height="30" as="geometry"/>
                </mxCell>
                <mxCell id="TiiX26Bb1OiR6IXR6t6P-154" value="50" style="shape=partialRectangle;html=1;whiteSpace=wrap;connectable=0;fillColor=none;top=0;left=0;bottom=0;right=0;overflow=hidden;strokeColor=inherit;fontSize=16;" parent="TiiX26Bb1OiR6IXR6t6P-153" vertex="1">
                    <mxGeometry width="44" height="30" as="geometry">
                        <mxRectangle width="44" height="30" as="alternateBounds"/>
                    </mxGeometry>
                </mxCell>
                <mxCell id="TiiX26Bb1OiR6IXR6t6P-155" value="Station Frequency" style="shape=partialRectangle;html=1;whiteSpace=wrap;connectable=0;fillColor=none;top=0;left=0;bottom=0;right=0;align=left;spacingLeft=6;overflow=hidden;strokeColor=inherit;fontSize=16;" parent="TiiX26Bb1OiR6IXR6t6P-153" vertex="1">
                    <mxGeometry x="44" width="156" height="30" as="geometry">
                        <mxRectangle width="156" height="30" as="alternateBounds"/>
                    </mxGeometry>
                </mxCell>
                <mxCell id="TiiX26Bb1OiR6IXR6t6P-160" style="shape=tableRow;horizontal=0;startSize=0;swimlaneHead=0;swimlaneBody=0;top=0;left=0;bottom=0;right=0;collapsible=0;dropTarget=0;fillColor=none;points=[[0,0.5],[1,0.5]];portConstraint=eastwest;strokeColor=inherit;fontSize=16;" parent="TiiX26Bb1OiR6IXR6t6P-146" vertex="1">
                    <mxGeometry y="150" width="200" height="30" as="geometry"/>
                </mxCell>
                <mxCell id="TiiX26Bb1OiR6IXR6t6P-161" value="0" style="shape=partialRectangle;html=1;whiteSpace=wrap;connectable=0;fillColor=none;top=0;left=0;bottom=0;right=0;overflow=hidden;strokeColor=inherit;fontSize=16;" parent="TiiX26Bb1OiR6IXR6t6P-160" vertex="1">
                    <mxGeometry width="44" height="30" as="geometry">
                        <mxRectangle width="44" height="30" as="alternateBounds"/>
                    </mxGeometry>
                </mxCell>
                <mxCell id="TiiX26Bb1OiR6IXR6t6P-162" value="Return" style="shape=partialRectangle;html=1;whiteSpace=wrap;connectable=0;fillColor=none;top=0;left=0;bottom=0;right=0;align=left;spacingLeft=6;overflow=hidden;strokeColor=inherit;fontSize=16;" parent="TiiX26Bb1OiR6IXR6t6P-160" vertex="1">
                    <mxGeometry x="44" width="156" height="30" as="geometry">
                        <mxRectangle width="156" height="30" as="alternateBounds"/>
                    </mxGeometry>
                </mxCell>
                <mxCell id="TiiX26Bb1OiR6IXR6t6P-159" style="edgeStyle=orthogonalEdgeStyle;rounded=0;orthogonalLoop=1;jettySize=auto;html=1;exitX=0;exitY=0.5;exitDx=0;exitDy=0;" parent="1" source="TiiX26Bb1OiR6IXR6t6P-35" edge="1">
                    <mxGeometry relative="1" as="geometry">
                        <mxPoint x="-780" y="740" as="targetPoint"/>
                        <Array as="points">
                            <mxPoint x="-400" y="520"/>
                            <mxPoint x="-780" y="520"/>
                            <mxPoint x="-780" y="740"/>
                        </Array>
                    </mxGeometry>
                </mxCell>
                <mxCell id="TiiX26Bb1OiR6IXR6t6P-179" value="Increase frequency +0.5" style="shape=process;whiteSpace=wrap;html=1;backgroundOutline=1;" parent="1" vertex="1">
                    <mxGeometry x="-730" y="540" width="120" height="60" as="geometry"/>
                </mxCell>
                <mxCell id="TiiX26Bb1OiR6IXR6t6P-180" style="edgeStyle=orthogonalEdgeStyle;rounded=0;orthogonalLoop=1;jettySize=auto;html=1;entryX=1;entryY=0.5;entryDx=0;entryDy=0;" parent="1" source="TiiX26Bb1OiR6IXR6t6P-98" target="TiiX26Bb1OiR6IXR6t6P-179" edge="1">
                    <mxGeometry relative="1" as="geometry"/>
                </mxCell>
                <mxCell id="TiiX26Bb1OiR6IXR6t6P-181" style="edgeStyle=orthogonalEdgeStyle;rounded=0;orthogonalLoop=1;jettySize=auto;html=1;entryX=0;entryY=0;entryDx=0;entryDy=25;entryPerimeter=0;" parent="1" source="TiiX26Bb1OiR6IXR6t6P-179" target="TiiX26Bb1OiR6IXR6t6P-145" edge="1">
                    <mxGeometry relative="1" as="geometry">
                        <Array as="points">
                            <mxPoint x="-630" y="355"/>
                        </Array>
                    </mxGeometry>
                </mxCell>
                <mxCell id="TiiX26Bb1OiR6IXR6t6P-182" value="Decrease frequency -0.5" style="shape=process;whiteSpace=wrap;html=1;backgroundOutline=1;" parent="1" vertex="1">
                    <mxGeometry x="-730" y="625" width="120" height="60" as="geometry"/>
                </mxCell>
                <mxCell id="TiiX26Bb1OiR6IXR6t6P-183" style="edgeStyle=orthogonalEdgeStyle;rounded=0;orthogonalLoop=1;jettySize=auto;html=1;entryX=0;entryY=0;entryDx=0;entryDy=25;entryPerimeter=0;" parent="1" source="TiiX26Bb1OiR6IXR6t6P-182" target="TiiX26Bb1OiR6IXR6t6P-145" edge="1">
                    <mxGeometry relative="1" as="geometry">
                        <Array as="points">
                            <mxPoint x="-730" y="655"/>
                            <mxPoint x="-730" y="355"/>
                        </Array>
                    </mxGeometry>
                </mxCell>
                <mxCell id="TiiX26Bb1OiR6IXR6t6P-184" style="edgeStyle=orthogonalEdgeStyle;rounded=0;orthogonalLoop=1;jettySize=auto;html=1;entryX=1;entryY=0.5;entryDx=0;entryDy=0;" parent="1" source="TiiX26Bb1OiR6IXR6t6P-101" target="TiiX26Bb1OiR6IXR6t6P-182" edge="1">
                    <mxGeometry relative="1" as="geometry">
                        <Array as="points">
                            <mxPoint x="-470" y="575"/>
                            <mxPoint x="-470" y="655"/>
                        </Array>
                    </mxGeometry>
                </mxCell>
                <mxCell id="TiiX26Bb1OiR6IXR6t6P-185" style="edgeStyle=orthogonalEdgeStyle;rounded=0;orthogonalLoop=1;jettySize=auto;html=1;" parent="1" source="TiiX26Bb1OiR6IXR6t6P-104" target="TiiX26Bb1OiR6IXR6t6P-186" edge="1">
                    <mxGeometry relative="1" as="geometry">
                        <mxPoint x="-440" y="760" as="targetPoint"/>
                        <Array as="points">
                            <mxPoint x="-420" y="605"/>
                        </Array>
                    </mxGeometry>
                </mxCell>
                <mxCell id="TiiX26Bb1OiR6IXR6t6P-275" style="edgeStyle=orthogonalEdgeStyle;rounded=0;orthogonalLoop=1;jettySize=auto;html=1;" parent="1" source="TiiX26Bb1OiR6IXR6t6P-186" target="TiiX26Bb1OiR6IXR6t6P-274" edge="1">
                    <mxGeometry relative="1" as="geometry"/>
                </mxCell>
                <mxCell id="TiiX26Bb1OiR6IXR6t6P-186" value="stations.json" style="shape=internalStorage;whiteSpace=wrap;html=1;backgroundOutline=1;" parent="1" vertex="1">
                    <mxGeometry x="-505" y="790" width="140" height="130" as="geometry"/>
                </mxCell>
                <mxCell id="TiiX26Bb1OiR6IXR6t6P-187" value="At FM" style="shape=callout;whiteSpace=wrap;html=1;perimeter=calloutPerimeter;" parent="1" vertex="1">
                    <mxGeometry x="-770" y="250" width="120" height="80" as="geometry"/>
                </mxCell>
                <mxCell id="TiiX26Bb1OiR6IXR6t6P-188" value="At AM" style="shape=callout;whiteSpace=wrap;html=1;perimeter=calloutPerimeter;" parent="1" vertex="1">
                    <mxGeometry x="-770" y="150" width="120" height="80" as="geometry"/>
                </mxCell>
                <mxCell id="TiiX26Bb1OiR6IXR6t6P-189" style="edgeStyle=orthogonalEdgeStyle;rounded=0;orthogonalLoop=1;jettySize=auto;html=1;entryX=0;entryY=0;entryDx=0;entryDy=25;entryPerimeter=0;" parent="1" source="TiiX26Bb1OiR6IXR6t6P-29" target="TiiX26Bb1OiR6IXR6t6P-187" edge="1">
                    <mxGeometry relative="1" as="geometry"/>
                </mxCell>
                <mxCell id="TiiX26Bb1OiR6IXR6t6P-190" style="edgeStyle=orthogonalEdgeStyle;rounded=0;orthogonalLoop=1;jettySize=auto;html=1;entryX=0;entryY=0;entryDx=0;entryDy=25;entryPerimeter=0;" parent="1" source="TiiX26Bb1OiR6IXR6t6P-32" target="TiiX26Bb1OiR6IXR6t6P-188" edge="1">
                    <mxGeometry relative="1" as="geometry">
                        <Array as="points">
                            <mxPoint x="-820" y="485"/>
                            <mxPoint x="-820" y="175"/>
                        </Array>
                    </mxGeometry>
                </mxCell>
                <mxCell id="TiiX26Bb1OiR6IXR6t6P-191" style="edgeStyle=orthogonalEdgeStyle;rounded=0;orthogonalLoop=1;jettySize=auto;html=1;startArrow=none;startFill=0;endArrow=classic;endFill=1;" parent="1" source="TiiX26Bb1OiR6IXR6t6P-107" target="TiiX26Bb1OiR6IXR6t6P-6" edge="1">
                    <mxGeometry relative="1" as="geometry">
                        <mxPoint x="280" y="281" as="targetPoint"/>
                        <Array as="points">
                            <mxPoint x="70" y="635"/>
                            <mxPoint x="70" y="290"/>
                        </Array>
                    </mxGeometry>
                </mxCell>
                <mxCell id="TiiX26Bb1OiR6IXR6t6P-206" style="edgeStyle=orthogonalEdgeStyle;rounded=0;orthogonalLoop=1;jettySize=auto;html=1;startArrow=none;startFill=0;" parent="1" source="TiiX26Bb1OiR6IXR6t6P-130" target="TiiX26Bb1OiR6IXR6t6P-6" edge="1">
                    <mxGeometry relative="1" as="geometry">
                        <Array as="points">
                            <mxPoint x="380" y="945"/>
                            <mxPoint x="380" y="950"/>
                            <mxPoint x="390" y="950"/>
                            <mxPoint x="390" y="560"/>
                            <mxPoint x="560" y="560"/>
                            <mxPoint x="560" y="280"/>
                        </Array>
                        <mxPoint x="550" y="280" as="targetPoint"/>
                    </mxGeometry>
                </mxCell>
                <mxCell id="TiiX26Bb1OiR6IXR6t6P-222" style="edgeStyle=orthogonalEdgeStyle;rounded=0;orthogonalLoop=1;jettySize=auto;html=1;startArrow=none;startFill=0;" parent="1" source="TiiX26Bb1OiR6IXR6t6P-142" edge="1">
                    <mxGeometry relative="1" as="geometry">
                        <mxPoint x="520" y="280" as="targetPoint"/>
                        <Array as="points">
                            <mxPoint x="960" y="1035"/>
                            <mxPoint x="960" y="280"/>
                        </Array>
                    </mxGeometry>
                </mxCell>
                <mxCell id="TiiX26Bb1OiR6IXR6t6P-226" style="edgeStyle=orthogonalEdgeStyle;rounded=0;orthogonalLoop=1;jettySize=auto;html=1;entryX=0;entryY=0.081;entryDx=0;entryDy=0;entryPerimeter=0;endArrow=none;endFill=0;startArrow=block;startFill=1;" parent="1" target="TiiX26Bb1OiR6IXR6t6P-39" edge="1">
                    <mxGeometry relative="1" as="geometry">
                        <Array as="points">
                            <mxPoint x="-170" y="795"/>
                        </Array>
                        <mxPoint x="-170" y="980" as="sourcePoint"/>
                    </mxGeometry>
                </mxCell>
                <mxCell id="TiiX26Bb1OiR6IXR6t6P-227" value="Current Mode:" style="shape=callout;whiteSpace=wrap;html=1;perimeter=calloutPerimeter;" parent="1" vertex="1">
                    <mxGeometry x="-230" y="1090" width="120" height="80" as="geometry"/>
                </mxCell>
                <mxCell id="TiiX26Bb1OiR6IXR6t6P-228" style="edgeStyle=orthogonalEdgeStyle;rounded=0;orthogonalLoop=1;jettySize=auto;html=1;entryX=0.5;entryY=0;entryDx=0;entryDy=0;entryPerimeter=0;exitX=0.5;exitY=1;exitDx=0;exitDy=0;" parent="1" source="10" target="TiiX26Bb1OiR6IXR6t6P-227" edge="1">
                    <mxGeometry relative="1" as="geometry">
                        <mxPoint x="-180" y="1050" as="sourcePoint"/>
                    </mxGeometry>
                </mxCell>
                <mxCell id="TiiX26Bb1OiR6IXR6t6P-231" style="edgeStyle=orthogonalEdgeStyle;rounded=0;orthogonalLoop=1;jettySize=auto;html=1;entryX=0;entryY=0.5;entryDx=0;entryDy=0;endArrow=none;endFill=0;startArrow=block;startFill=1;" parent="1" source="TiiX26Bb1OiR6IXR6t6P-229" target="TiiX26Bb1OiR6IXR6t6P-46" edge="1">
                    <mxGeometry relative="1" as="geometry">
                        <Array as="points">
                            <mxPoint x="-140" y="1510"/>
                            <mxPoint x="-140" y="1320"/>
                            <mxPoint x="-40" y="1320"/>
                            <mxPoint x="-40" y="1030"/>
                            <mxPoint x="-50" y="1030"/>
                            <mxPoint x="-50" y="855"/>
                        </Array>
                    </mxGeometry>
                </mxCell>
                <mxCell id="TiiX26Bb1OiR6IXR6t6P-229" value="Song Up" style="shape=process;whiteSpace=wrap;html=1;backgroundOutline=1;" parent="1" vertex="1">
                    <mxGeometry x="-120" y="1480" width="120" height="60" as="geometry"/>
                </mxCell>
                <mxCell id="12" style="edgeStyle=none;html=1;entryX=0;entryY=0;entryDx=0;entryDy=50;entryPerimeter=0;startArrow=none;" parent="1" source="20" target="TiiX26Bb1OiR6IXR6t6P-235" edge="1">
                    <mxGeometry relative="1" as="geometry"/>
                </mxCell>
                <mxCell id="TiiX26Bb1OiR6IXR6t6P-230" value="Song Down&amp;nbsp;" style="shape=process;whiteSpace=wrap;html=1;backgroundOutline=1;" parent="1" vertex="1">
                    <mxGeometry x="-120" y="1580" width="120" height="60" as="geometry"/>
                </mxCell>
                <mxCell id="TiiX26Bb1OiR6IXR6t6P-234" style="edgeStyle=orthogonalEdgeStyle;rounded=0;orthogonalLoop=1;jettySize=auto;html=1;entryX=0;entryY=0.5;entryDx=0;entryDy=0;" parent="1" source="TiiX26Bb1OiR6IXR6t6P-111" target="TiiX26Bb1OiR6IXR6t6P-230" edge="1">
                    <mxGeometry relative="1" as="geometry">
                        <Array as="points">
                            <mxPoint x="-70" y="885"/>
                            <mxPoint x="-70" y="1130"/>
                            <mxPoint x="-80" y="1130"/>
                            <mxPoint x="-80" y="1420"/>
                            <mxPoint x="-170" y="1420"/>
                            <mxPoint x="-170" y="1610"/>
                        </Array>
                    </mxGeometry>
                </mxCell>
                <mxCell id="TiiX26Bb1OiR6IXR6t6P-235" value="Song changed" style="shape=callout;whiteSpace=wrap;html=1;perimeter=calloutPerimeter;" parent="1" vertex="1">
                    <mxGeometry x="650" y="1560" width="120" height="80" as="geometry"/>
                </mxCell>
                <mxCell id="TiiX26Bb1OiR6IXR6t6P-237" value="Phone Connected" style="shape=callout;whiteSpace=wrap;html=1;perimeter=calloutPerimeter;" parent="1" vertex="1">
                    <mxGeometry x="450" y="920" width="120" height="80" as="geometry"/>
                </mxCell>
                <mxCell id="TiiX26Bb1OiR6IXR6t6P-238" style="edgeStyle=orthogonalEdgeStyle;rounded=0;orthogonalLoop=1;jettySize=auto;html=1;startArrow=none;" parent="1" source="15" target="TiiX26Bb1OiR6IXR6t6P-235" edge="1">
                    <mxGeometry relative="1" as="geometry">
                        <mxPoint x="215" y="1555" as="targetPoint"/>
                    </mxGeometry>
                </mxCell>
                <mxCell id="TiiX26Bb1OiR6IXR6t6P-240" value="Phone Disconnected" style="shape=callout;whiteSpace=wrap;html=1;perimeter=calloutPerimeter;" parent="1" vertex="1">
                    <mxGeometry x="450" y="1010" width="120" height="80" as="geometry"/>
                </mxCell>
                <mxCell id="TiiX26Bb1OiR6IXR6t6P-241" style="edgeStyle=orthogonalEdgeStyle;rounded=0;orthogonalLoop=1;jettySize=auto;html=1;entryX=0;entryY=0;entryDx=0;entryDy=25;entryPerimeter=0;" parent="1" source="TiiX26Bb1OiR6IXR6t6P-51" target="TiiX26Bb1OiR6IXR6t6P-237" edge="1">
                    <mxGeometry relative="1" as="geometry"/>
                </mxCell>
                <mxCell id="TiiX26Bb1OiR6IXR6t6P-242" style="edgeStyle=orthogonalEdgeStyle;rounded=0;orthogonalLoop=1;jettySize=auto;html=1;entryX=0;entryY=0;entryDx=0;entryDy=25;entryPerimeter=0;" parent="1" source="TiiX26Bb1OiR6IXR6t6P-54" target="TiiX26Bb1OiR6IXR6t6P-240" edge="1">
                    <mxGeometry relative="1" as="geometry">
                        <Array as="points">
                            <mxPoint x="420" y="885"/>
                            <mxPoint x="420" y="1035"/>
                        </Array>
                    </mxGeometry>
                </mxCell>
                <mxCell id="TiiX26Bb1OiR6IXR6t6P-243" value="User's Contact" style="shape=callout;whiteSpace=wrap;html=1;perimeter=calloutPerimeter;" parent="1" vertex="1">
                    <mxGeometry x="540" y="1380" width="120" height="80" as="geometry"/>
                </mxCell>
                <mxCell id="TiiX26Bb1OiR6IXR6t6P-244" style="edgeStyle=orthogonalEdgeStyle;rounded=0;orthogonalLoop=1;jettySize=auto;html=1;" parent="1" source="TiiX26Bb1OiR6IXR6t6P-57" target="TiiX26Bb1OiR6IXR6t6P-243" edge="1">
                    <mxGeometry relative="1" as="geometry">
                        <Array as="points">
                            <mxPoint x="620" y="915"/>
                            <mxPoint x="620" y="1155"/>
                            <mxPoint x="590" y="1155"/>
                        </Array>
                    </mxGeometry>
                </mxCell>
                <mxCell id="TiiX26Bb1OiR6IXR6t6P-245" value="Start Call..." style="shape=callout;whiteSpace=wrap;html=1;perimeter=calloutPerimeter;" parent="1" vertex="1">
                    <mxGeometry x="890" y="1390" width="120" height="80" as="geometry"/>
                </mxCell>
                <mxCell id="TiiX26Bb1OiR6IXR6t6P-247" value="End Call" style="shape=callout;whiteSpace=wrap;html=1;perimeter=calloutPerimeter;" parent="1" vertex="1">
                    <mxGeometry x="1100" y="1390" width="120" height="80" as="geometry"/>
                </mxCell>
                <mxCell id="TiiX26Bb1OiR6IXR6t6P-248" style="edgeStyle=orthogonalEdgeStyle;rounded=0;orthogonalLoop=1;jettySize=auto;html=1;entryX=0.5;entryY=0;entryDx=0;entryDy=0;entryPerimeter=0;" parent="1" source="TiiX26Bb1OiR6IXR6t6P-133" target="TiiX26Bb1OiR6IXR6t6P-245" edge="1">
                    <mxGeometry relative="1" as="geometry">
                        <Array as="points">
                            <mxPoint x="620" y="945"/>
                            <mxPoint x="620" y="1100"/>
                            <mxPoint x="930" y="1100"/>
                            <mxPoint x="930" y="1390"/>
                        </Array>
                    </mxGeometry>
                </mxCell>
                <mxCell id="TiiX26Bb1OiR6IXR6t6P-249" style="edgeStyle=orthogonalEdgeStyle;rounded=0;orthogonalLoop=1;jettySize=auto;html=1;entryX=0.5;entryY=0;entryDx=0;entryDy=0;entryPerimeter=0;exitX=0;exitY=0.5;exitDx=0;exitDy=0;" parent="1" source="TiiX26Bb1OiR6IXR6t6P-136" target="TiiX26Bb1OiR6IXR6t6P-247" edge="1">
                    <mxGeometry relative="1" as="geometry">
                        <Array as="points">
                            <mxPoint x="620" y="975"/>
                            <mxPoint x="620" y="1070"/>
                            <mxPoint x="1160" y="1070"/>
                        </Array>
                    </mxGeometry>
                </mxCell>
                <mxCell id="TiiX26Bb1OiR6IXR6t6P-250" style="edgeStyle=orthogonalEdgeStyle;rounded=0;orthogonalLoop=1;jettySize=auto;html=1;entryX=0.5;entryY=0;entryDx=0;entryDy=0;" parent="1" source="TiiX26Bb1OiR6IXR6t6P-139" target="TiiX26Bb1OiR6IXR6t6P-251" edge="1">
                    <mxGeometry relative="1" as="geometry">
                        <mxPoint x="680" y="1280" as="targetPoint"/>
                        <Array as="points">
                            <mxPoint x="620" y="1005"/>
                            <mxPoint x="620" y="1100"/>
                            <mxPoint x="681" y="1100"/>
                            <mxPoint x="681" y="1250"/>
                            <mxPoint x="755" y="1250"/>
                        </Array>
                    </mxGeometry>
                </mxCell>
                <mxCell id="TiiX26Bb1OiR6IXR6t6P-251" value="Speaker/headphones" style="shape=process;whiteSpace=wrap;html=1;backgroundOutline=1;" parent="1" vertex="1">
                    <mxGeometry x="680" y="1280" width="150" height="60" as="geometry"/>
                </mxCell>
                <mxCell id="TiiX26Bb1OiR6IXR6t6P-252" value="Speaker/Heaphones" style="shape=callout;whiteSpace=wrap;html=1;perimeter=calloutPerimeter;" parent="1" vertex="1">
                    <mxGeometry x="720" y="1390" width="120" height="80" as="geometry"/>
                </mxCell>
                <mxCell id="TiiX26Bb1OiR6IXR6t6P-253" style="edgeStyle=orthogonalEdgeStyle;rounded=0;orthogonalLoop=1;jettySize=auto;html=1;entryX=0.5;entryY=0;entryDx=0;entryDy=0;entryPerimeter=0;" parent="1" source="TiiX26Bb1OiR6IXR6t6P-251" target="TiiX26Bb1OiR6IXR6t6P-252" edge="1">
                    <mxGeometry relative="1" as="geometry"/>
                </mxCell>
                <mxCell id="TiiX26Bb1OiR6IXR6t6P-255" value="Trip Logic" style="shape=process;whiteSpace=wrap;html=1;backgroundOutline=1;" parent="1" vertex="1">
                    <mxGeometry x="1240" y="580" width="120" height="60" as="geometry"/>
                </mxCell>
                <mxCell id="TiiX26Bb1OiR6IXR6t6P-257" value="Your Trip:" style="shape=callout;whiteSpace=wrap;html=1;perimeter=calloutPerimeter;" parent="1" vertex="1">
                    <mxGeometry x="1410" y="580" width="120" height="80" as="geometry"/>
                </mxCell>
                <mxCell id="TiiX26Bb1OiR6IXR6t6P-258" style="edgeStyle=orthogonalEdgeStyle;rounded=0;orthogonalLoop=1;jettySize=auto;html=1;entryX=0;entryY=0;entryDx=0;entryDy=25;entryPerimeter=0;" parent="1" source="TiiX26Bb1OiR6IXR6t6P-255" target="TiiX26Bb1OiR6IXR6t6P-257" edge="1">
                    <mxGeometry relative="1" as="geometry"/>
                </mxCell>
                <mxCell id="TiiX26Bb1OiR6IXR6t6P-272" style="edgeStyle=orthogonalEdgeStyle;rounded=0;orthogonalLoop=1;jettySize=auto;html=1;startArrow=none;startFill=0;" parent="1" source="TiiX26Bb1OiR6IXR6t6P-65" target="TiiX26Bb1OiR6IXR6t6P-6" edge="1">
                    <mxGeometry relative="1" as="geometry">
                        <Array as="points">
                            <mxPoint x="1460" y="465"/>
                            <mxPoint x="1460" y="280"/>
                        </Array>
                        <mxPoint x="1010" y="280" as="targetPoint"/>
                    </mxGeometry>
                </mxCell>
                <mxCell id="TiiX26Bb1OiR6IXR6t6P-274" value="New Favorite added" style="shape=callout;whiteSpace=wrap;html=1;perimeter=calloutPerimeter;" parent="1" vertex="1">
                    <mxGeometry x="-505" y="1220" width="120" height="80" as="geometry"/>
                </mxCell>
                <mxCell id="TiiX26Bb1OiR6IXR6t6P-276" value="Favorite Added" style="shape=callout;whiteSpace=wrap;html=1;perimeter=calloutPerimeter;" parent="1" vertex="1">
                    <mxGeometry x="-750" y="1220" width="120" height="80" as="geometry"/>
                </mxCell>
                <mxCell id="TiiX26Bb1OiR6IXR6t6P-277" style="edgeStyle=orthogonalEdgeStyle;rounded=0;orthogonalLoop=1;jettySize=auto;html=1;entryX=-0.002;entryY=0.126;entryDx=0;entryDy=0;entryPerimeter=0;startArrow=none;startFill=1;endArrow=none;endFill=0;" parent="1" source="7" target="TiiX26Bb1OiR6IXR6t6P-146" edge="1">
                    <mxGeometry relative="1" as="geometry"/>
                </mxCell>
                <mxCell id="TiiX26Bb1OiR6IXR6t6P-278" value="THis is System.out.println(&quot;&quot;)" style="shape=callout;whiteSpace=wrap;html=1;perimeter=calloutPerimeter;" parent="1" vertex="1">
                    <mxGeometry x="-80" y="90" width="120" height="80" as="geometry"/>
                </mxCell>
                <mxCell id="2" value="* -- needs to switch the interface&lt;br&gt;&lt;br&gt;* Speaker/Headphones&lt;br&gt;* Start Trip" style="text;html=1;strokeColor=none;fillColor=none;align=center;verticalAlign=middle;whiteSpace=wrap;rounded=0;" parent="1" vertex="1">
                    <mxGeometry x="80" y="90" width="170" height="100" as="geometry"/>
                </mxCell>
                <mxCell id="6" style="edgeStyle=none;html=1;entryX=1;entryY=0.5;entryDx=0;entryDy=0;" parent="1" source="TiiX26Bb1OiR6IXR6t6P-25" target="K9-R-xJxUMv8-NCfHtHC-5" edge="1">
                    <mxGeometry relative="1" as="geometry">
                        <mxPoint x="650" y="180" as="targetPoint"/>
                        <Array as="points">
                            <mxPoint x="670" y="465"/>
                            <mxPoint x="670" y="190"/>
                            <mxPoint x="580" y="190"/>
                        </Array>
                    </mxGeometry>
                </mxCell>
                <mxCell id="8" value="" style="edgeStyle=orthogonalEdgeStyle;rounded=0;orthogonalLoop=1;jettySize=auto;html=1;entryX=-0.002;entryY=0.126;entryDx=0;entryDy=0;entryPerimeter=0;startArrow=block;startFill=1;endArrow=none;endFill=0;" parent="1" source="TiiX26Bb1OiR6IXR6t6P-276" target="7" edge="1">
                    <mxGeometry relative="1" as="geometry">
                        <mxPoint x="-720" y="1290" as="sourcePoint"/>
                        <mxPoint x="-810.4000000000001" y="762.6800000000001" as="targetPoint"/>
                    </mxGeometry>
                </mxCell>
                <mxCell id="7" value="favoriteRadio.json" style="shape=internalStorage;whiteSpace=wrap;html=1;backgroundOutline=1;" parent="1" vertex="1">
                    <mxGeometry x="-770" y="1005" width="140" height="150" as="geometry"/>
                </mxCell>
                <mxCell id="9" value="favoriteRadio.json" style="shape=internalStorage;whiteSpace=wrap;html=1;backgroundOutline=1;" parent="1" vertex="1">
                    <mxGeometry x="-515" y="1010" width="140" height="150" as="geometry"/>
                </mxCell>
                <mxCell id="10" value="1. CD&lt;br&gt;2. Spotify&lt;div&gt;3. MP3&lt;/div&gt;" style="shape=process;whiteSpace=wrap;html=1;backgroundOutline=1;" parent="1" vertex="1">
                    <mxGeometry x="-230" y="980" width="120" height="60" as="geometry"/>
                </mxCell>
                <mxCell id="13" value="" style="edgeStyle=orthogonalEdgeStyle;rounded=0;orthogonalLoop=1;jettySize=auto;html=1;endArrow=none;" parent="1" source="TiiX26Bb1OiR6IXR6t6P-229" target="11" edge="1">
                    <mxGeometry relative="1" as="geometry">
                        <mxPoint y="1510" as="sourcePoint"/>
                        <mxPoint x="310" y="1560" as="targetPoint"/>
                    </mxGeometry>
                </mxCell>
                <mxCell id="11" value="CDSONG.json" style="shape=internalStorage;whiteSpace=wrap;html=1;backgroundOutline=1;" parent="1" vertex="1">
                    <mxGeometry x="30" y="1470" width="160" height="70" as="geometry"/>
                </mxCell>
                <mxCell id="17" value="" style="edgeStyle=orthogonalEdgeStyle;rounded=0;orthogonalLoop=1;jettySize=auto;html=1;startArrow=none;endArrow=none;" parent="1" source="18" target="15" edge="1">
                    <mxGeometry relative="1" as="geometry">
                        <mxPoint x="190" y="1505" as="sourcePoint"/>
                        <mxPoint x="570" y="1560" as="targetPoint"/>
                    </mxGeometry>
                </mxCell>
                <mxCell id="15" value="SPOTIFYSONGS.json" style="shape=internalStorage;whiteSpace=wrap;html=1;backgroundOutline=1;" parent="1" vertex="1">
                    <mxGeometry x="380" y="1470" width="160" height="70" as="geometry"/>
                </mxCell>
                <mxCell id="19" value="" style="edgeStyle=orthogonalEdgeStyle;rounded=0;orthogonalLoop=1;jettySize=auto;html=1;startArrow=none;endArrow=none;" parent="1" source="11" target="18" edge="1">
                    <mxGeometry relative="1" as="geometry">
                        <mxPoint x="190" y="1505" as="sourcePoint"/>
                        <mxPoint x="380" y="1505" as="targetPoint"/>
                    </mxGeometry>
                </mxCell>
                <mxCell id="18" value="MP3SONGS.json" style="shape=internalStorage;whiteSpace=wrap;html=1;backgroundOutline=1;" parent="1" vertex="1">
                    <mxGeometry x="205" y="1470" width="160" height="70" as="geometry"/>
                </mxCell>
                <mxCell id="21" value="" style="edgeStyle=none;html=1;entryX=0;entryY=0.5;entryDx=0;entryDy=0;endArrow=none;startArrow=none;" parent="1" source="23" target="20" edge="1">
                    <mxGeometry relative="1" as="geometry">
                        <mxPoint y="1610" as="sourcePoint"/>
                        <mxPoint x="555" y="1610" as="targetPoint"/>
                    </mxGeometry>
                </mxCell>
                <mxCell id="20" value="MP3SONGS.json" style="shape=internalStorage;whiteSpace=wrap;html=1;backgroundOutline=1;" parent="1" vertex="1">
                    <mxGeometry x="205" y="1575" width="160" height="70" as="geometry"/>
                </mxCell>
                <mxCell id="22" value="SPOTIFYSONGS.json" style="shape=internalStorage;whiteSpace=wrap;html=1;backgroundOutline=1;" parent="1" vertex="1">
                    <mxGeometry x="380" y="1570" width="160" height="70" as="geometry"/>
                </mxCell>
                <mxCell id="24" value="" style="edgeStyle=none;html=1;entryX=0;entryY=0.5;entryDx=0;entryDy=0;endArrow=none;" parent="1" source="TiiX26Bb1OiR6IXR6t6P-230" target="23" edge="1">
                    <mxGeometry relative="1" as="geometry">
                        <mxPoint y="1610" as="sourcePoint"/>
                        <mxPoint x="205" y="1610" as="targetPoint"/>
                    </mxGeometry>
                </mxCell>
                <mxCell id="23" value="CDSONG.json" style="shape=internalStorage;whiteSpace=wrap;html=1;backgroundOutline=1;" parent="1" vertex="1">
                    <mxGeometry x="20" y="1575" width="160" height="70" as="geometry"/>
                </mxCell>
                <mxCell id="26" value="mobilecontact.json" style="shape=internalStorage;whiteSpace=wrap;html=1;backgroundOutline=1;" parent="1" vertex="1">
                    <mxGeometry x="500" y="1250" width="160" height="95" as="geometry"/>
                </mxCell>
                <mxCell id="28" value="mobilecontact.json" style="shape=internalStorage;whiteSpace=wrap;html=1;backgroundOutline=1;" parent="1" vertex="1">
                    <mxGeometry x="860" y="1250" width="160" height="95" as="geometry"/>
                </mxCell>
                <mxCell id="29" value="mobilecontact.json" style="shape=internalStorage;whiteSpace=wrap;html=1;backgroundOutline=1;" parent="1" vertex="1">
                    <mxGeometry x="1080" y="1250" width="160" height="95" as="geometry"/>
                </mxCell>
                <mxCell id="31" value="" style="edgeStyle=orthogonalEdgeStyle;rounded=0;orthogonalLoop=1;jettySize=auto;html=1;endArrow=none;" parent="1" source="TiiX26Bb1OiR6IXR6t6P-62" target="30" edge="1">
                    <mxGeometry relative="1" as="geometry">
                        <mxPoint x="1240" y="610" as="targetPoint"/>
                        <Array as="points"/>
                        <mxPoint x="1210" y="435" as="sourcePoint"/>
                    </mxGeometry>
                </mxCell>
                <mxCell id="32" style="edgeStyle=none;html=1;entryX=0;entryY=0.25;entryDx=0;entryDy=0;exitX=1;exitY=0.5;exitDx=0;exitDy=0;endArrow=none;endFill=0;" parent="1" source="30" target="TiiX26Bb1OiR6IXR6t6P-255" edge="1">
                    <mxGeometry relative="1" as="geometry"/>
                </mxCell>
                <mxCell id="30" value="trips.json" style="shape=internalStorage;whiteSpace=wrap;html=1;backgroundOutline=1;" parent="1" vertex="1">
                    <mxGeometry x="1060" y="540" width="105" height="100" as="geometry"/>
                </mxCell>
                <mxCell id="33" value="Current Trip" style="shape=callout;whiteSpace=wrap;html=1;perimeter=calloutPerimeter;" parent="1" vertex="1">
                    <mxGeometry x="1300" y="310" width="120" height="80" as="geometry"/>
                </mxCell>
                <mxCell id="34" value="stations.json" style="shape=internalStorage;whiteSpace=wrap;html=1;backgroundOutline=1;" parent="1" vertex="1">
                    <mxGeometry x="-580" y="540" width="140" height="130" as="geometry"/>
                </mxCell>
                <mxCell id="38" style="edgeStyle=none;html=1;entryX=0.556;entryY=0;entryDx=0;entryDy=0;entryPerimeter=0;" edge="1" parent="1" source="35" target="39">
                    <mxGeometry relative="1" as="geometry">
                        <mxPoint x="1230" y="750" as="targetPoint"/>
                        <Array as="points">
                            <mxPoint x="850" y="435"/>
                            <mxPoint x="850" y="730"/>
                            <mxPoint x="1440" y="730"/>
                        </Array>
                    </mxGeometry>
                </mxCell>
                <mxCell id="39" value="Climatization" style="shape=table;startSize=30;container=1;collapsible=0;childLayout=tableLayout;fixedRows=1;rowLines=0;fontStyle=0;strokeColor=default;fontSize=16;" vertex="1" parent="1">
                    <mxGeometry x="1340" y="770" width="180" height="150" as="geometry"/>
                </mxCell>
                <mxCell id="40" value="" style="shape=tableRow;horizontal=0;startSize=0;swimlaneHead=0;swimlaneBody=0;top=0;left=0;bottom=0;right=0;collapsible=0;dropTarget=0;fillColor=none;points=[[0,0.5],[1,0.5]];portConstraint=eastwest;strokeColor=inherit;fontSize=16;" vertex="1" parent="39">
                    <mxGeometry y="30" width="180" height="30" as="geometry"/>
                </mxCell>
                <mxCell id="41" value="1" style="shape=partialRectangle;html=1;whiteSpace=wrap;connectable=0;fillColor=none;top=0;left=0;bottom=0;right=0;overflow=hidden;pointerEvents=1;strokeColor=inherit;fontSize=16;" vertex="1" parent="40">
                    <mxGeometry width="40" height="30" as="geometry">
                        <mxRectangle width="40" height="30" as="alternateBounds"/>
                    </mxGeometry>
                </mxCell>
                <mxCell id="42" value="AC on/off" style="shape=partialRectangle;html=1;whiteSpace=wrap;connectable=0;fillColor=none;top=0;left=0;bottom=0;right=0;align=left;spacingLeft=6;overflow=hidden;strokeColor=inherit;fontSize=16;" vertex="1" parent="40">
                    <mxGeometry x="40" width="140" height="30" as="geometry">
                        <mxRectangle width="140" height="30" as="alternateBounds"/>
                    </mxGeometry>
                </mxCell>
                <mxCell id="47" style="shape=tableRow;horizontal=0;startSize=0;swimlaneHead=0;swimlaneBody=0;top=0;left=0;bottom=0;right=0;collapsible=0;dropTarget=0;fillColor=none;points=[[0,0.5],[1,0.5]];portConstraint=eastwest;strokeColor=inherit;fontSize=16;" vertex="1" parent="39">
                    <mxGeometry y="60" width="180" height="30" as="geometry"/>
                </mxCell>
                <mxCell id="48" value="2" style="shape=partialRectangle;html=1;whiteSpace=wrap;connectable=0;fillColor=none;top=0;left=0;bottom=0;right=0;overflow=hidden;strokeColor=inherit;fontSize=16;" vertex="1" parent="47">
                    <mxGeometry width="40" height="30" as="geometry">
                        <mxRectangle width="40" height="30" as="alternateBounds"/>
                    </mxGeometry>
                </mxCell>
                <mxCell id="49" value="+ temperature" style="shape=partialRectangle;html=1;whiteSpace=wrap;connectable=0;fillColor=none;top=0;left=0;bottom=0;right=0;align=left;spacingLeft=6;overflow=hidden;strokeColor=inherit;fontSize=16;" vertex="1" parent="47">
                    <mxGeometry x="40" width="140" height="30" as="geometry">
                        <mxRectangle width="140" height="30" as="alternateBounds"/>
                    </mxGeometry>
                </mxCell>
                <mxCell id="50" style="shape=tableRow;horizontal=0;startSize=0;swimlaneHead=0;swimlaneBody=0;top=0;left=0;bottom=0;right=0;collapsible=0;dropTarget=0;fillColor=none;points=[[0,0.5],[1,0.5]];portConstraint=eastwest;strokeColor=inherit;fontSize=16;" vertex="1" parent="39">
                    <mxGeometry y="90" width="180" height="30" as="geometry"/>
                </mxCell>
                <mxCell id="51" value="3" style="shape=partialRectangle;html=1;whiteSpace=wrap;connectable=0;fillColor=none;top=0;left=0;bottom=0;right=0;overflow=hidden;strokeColor=inherit;fontSize=16;" vertex="1" parent="50">
                    <mxGeometry width="40" height="30" as="geometry">
                        <mxRectangle width="40" height="30" as="alternateBounds"/>
                    </mxGeometry>
                </mxCell>
                <mxCell id="52" value="- temperature" style="shape=partialRectangle;html=1;whiteSpace=wrap;connectable=0;fillColor=none;top=0;left=0;bottom=0;right=0;align=left;spacingLeft=6;overflow=hidden;strokeColor=inherit;fontSize=16;" vertex="1" parent="50">
                    <mxGeometry x="40" width="140" height="30" as="geometry">
                        <mxRectangle width="140" height="30" as="alternateBounds"/>
                    </mxGeometry>
                </mxCell>
                <mxCell id="43" value="" style="shape=tableRow;horizontal=0;startSize=0;swimlaneHead=0;swimlaneBody=0;top=0;left=0;bottom=0;right=0;collapsible=0;dropTarget=0;fillColor=none;points=[[0,0.5],[1,0.5]];portConstraint=eastwest;strokeColor=inherit;fontSize=16;" vertex="1" parent="39">
                    <mxGeometry y="120" width="180" height="30" as="geometry"/>
                </mxCell>
                <mxCell id="44" value="0" style="shape=partialRectangle;html=1;whiteSpace=wrap;connectable=0;fillColor=none;top=0;left=0;bottom=0;right=0;overflow=hidden;strokeColor=inherit;fontSize=16;" vertex="1" parent="43">
                    <mxGeometry width="40" height="30" as="geometry">
                        <mxRectangle width="40" height="30" as="alternateBounds"/>
                    </mxGeometry>
                </mxCell>
                <mxCell id="45" value="Goto Menu" style="shape=partialRectangle;html=1;whiteSpace=wrap;connectable=0;fillColor=none;top=0;left=0;bottom=0;right=0;align=left;spacingLeft=6;overflow=hidden;strokeColor=inherit;fontSize=16;" vertex="1" parent="43">
                    <mxGeometry x="40" width="140" height="30" as="geometry">
                        <mxRectangle width="140" height="30" as="alternateBounds"/>
                    </mxGeometry>
                </mxCell>
                <mxCell id="46" style="edgeStyle=none;html=1;endArrow=none;endFill=0;" edge="1" parent="1" source="43">
                    <mxGeometry relative="1" as="geometry">
                        <mxPoint x="1460" y="280" as="targetPoint"/>
                        <Array as="points">
                            <mxPoint x="1650" y="905"/>
                            <mxPoint x="1660" y="280"/>
                        </Array>
                    </mxGeometry>
                </mxCell>
                <mxCell id="56" value="AC switche to&amp;nbsp;&lt;br&gt;On or Off" style="shape=callout;whiteSpace=wrap;html=1;perimeter=calloutPerimeter;" vertex="1" parent="1">
                    <mxGeometry x="990" y="780" width="120" height="80" as="geometry"/>
                </mxCell>
                <mxCell id="57" style="edgeStyle=none;html=1;entryX=0;entryY=0;entryDx=120;entryDy=25;entryPerimeter=0;endArrow=classic;endFill=1;startArrow=none;startFill=0;" edge="1" parent="1" source="58" target="56">
                    <mxGeometry relative="1" as="geometry"/>
                </mxCell>
                <mxCell id="59" value="" style="edgeStyle=none;html=1;entryX=0;entryY=0;entryDx=120;entryDy=25;entryPerimeter=0;endArrow=none;endFill=0;" edge="1" parent="1" source="40" target="58">
                    <mxGeometry relative="1" as="geometry">
                        <mxPoint x="1340" y="812.1875" as="sourcePoint"/>
                        <mxPoint x="1110" y="805" as="targetPoint"/>
                    </mxGeometry>
                </mxCell>
                <mxCell id="58" value="swtiched to off or on" style="shape=process;whiteSpace=wrap;html=1;backgroundOutline=1;" vertex="1" parent="1">
                    <mxGeometry x="1165" y="780" width="120" height="60" as="geometry"/>
                </mxCell>
                <mxCell id="60" style="edgeStyle=none;html=1;startArrow=none;startFill=0;endArrow=classic;endFill=1;exitX=0;exitY=0.5;exitDx=0;exitDy=0;entryX=0;entryY=0;entryDx=0;entryDy=0;" edge="1" parent="1" source="47" target="62">
                    <mxGeometry relative="1" as="geometry">
                        <mxPoint x="1200" y="930" as="targetPoint"/>
                        <Array as="points">
                            <mxPoint x="1200" y="880"/>
                        </Array>
                    </mxGeometry>
                </mxCell>
                <mxCell id="61" style="edgeStyle=none;html=1;startArrow=none;startFill=0;endArrow=classic;endFill=1;exitX=0;exitY=0.5;exitDx=0;exitDy=0;entryX=1;entryY=0;entryDx=0;entryDy=0;" edge="1" parent="1" source="50" target="62">
                    <mxGeometry relative="1" as="geometry">
                        <mxPoint x="1240" y="930" as="targetPoint"/>
                        <Array as="points">
                            <mxPoint x="1240" y="890"/>
                        </Array>
                    </mxGeometry>
                </mxCell>
                <mxCell id="63" style="edgeStyle=none;html=1;exitX=0.539;exitY=0.994;exitDx=0;exitDy=0;startArrow=none;startFill=0;endArrow=none;endFill=0;entryX=0.5;entryY=0;entryDx=0;entryDy=0;exitPerimeter=0;" edge="1" parent="1" source="73" target="69">
                    <mxGeometry relative="1" as="geometry">
                        <mxPoint x="1320" y="990" as="targetPoint"/>
                    </mxGeometry>
                </mxCell>
                <mxCell id="64" style="edgeStyle=none;html=1;startArrow=none;startFill=0;endArrow=classic;endFill=1;entryX=0;entryY=0;entryDx=130;entryDy=15;entryPerimeter=0;" edge="1" parent="1" source="62" target="67">
                    <mxGeometry relative="1" as="geometry">
                        <mxPoint x="1130" y="956.25" as="targetPoint"/>
                    </mxGeometry>
                </mxCell>
                <mxCell id="62" value="IsACON?" style="rhombus;whiteSpace=wrap;html=1;" vertex="1" parent="1">
                    <mxGeometry x="1180" y="890" width="80" height="80" as="geometry"/>
                </mxCell>
                <mxCell id="66" value="False" style="text;html=1;strokeColor=none;fillColor=none;align=center;verticalAlign=middle;whiteSpace=wrap;rounded=0;" vertex="1" parent="1">
                    <mxGeometry x="1110" y="915" width="60" height="30" as="geometry"/>
                </mxCell>
                <mxCell id="67" value="AC is off" style="shape=callout;whiteSpace=wrap;html=1;perimeter=calloutPerimeter;" vertex="1" parent="1">
                    <mxGeometry x="980" y="935" width="130" height="60" as="geometry"/>
                </mxCell>
                <mxCell id="68" value="True" style="text;html=1;strokeColor=none;fillColor=none;align=center;verticalAlign=middle;whiteSpace=wrap;rounded=0;" vertex="1" parent="1">
                    <mxGeometry x="1245" y="930" width="60" height="30" as="geometry"/>
                </mxCell>
                <mxCell id="72" style="edgeStyle=none;html=1;entryX=0.5;entryY=0;entryDx=0;entryDy=0;entryPerimeter=0;startArrow=none;startFill=0;endArrow=classic;endFill=1;" edge="1" parent="1" source="69" target="71">
                    <mxGeometry relative="1" as="geometry"/>
                </mxCell>
                <mxCell id="69" value="+/- the tempature" style="shape=process;whiteSpace=wrap;html=1;backgroundOutline=1;" vertex="1" parent="1">
                    <mxGeometry x="1380" y="1090" width="120" height="60" as="geometry"/>
                </mxCell>
                <mxCell id="71" value="Temperature Change to new temperture" style="shape=callout;whiteSpace=wrap;html=1;perimeter=calloutPerimeter;" vertex="1" parent="1">
                    <mxGeometry x="1380" y="1220" width="120" height="80" as="geometry"/>
                </mxCell>
                <mxCell id="74" value="" style="edgeStyle=none;html=1;exitX=1;exitY=1;exitDx=0;exitDy=0;startArrow=none;startFill=0;endArrow=none;endFill=0;entryX=0;entryY=0.5;entryDx=0;entryDy=0;" edge="1" parent="1" source="62" target="73">
                    <mxGeometry relative="1" as="geometry">
                        <mxPoint x="1410" y="990" as="targetPoint"/>
                        <mxPoint x="1240" y="950" as="sourcePoint"/>
                    </mxGeometry>
                </mxCell>
                <mxCell id="73" value="temperatures.jason" style="shape=internalStorage;whiteSpace=wrap;html=1;backgroundOutline=1;" vertex="1" parent="1">
                    <mxGeometry x="1350" y="960" width="170" height="80" as="geometry"/>
                </mxCell>
                <mxCell id="81" style="edgeStyle=none;html=1;exitX=0;exitY=0.5;exitDx=0;exitDy=0;startArrow=none;startFill=0;endArrow=classic;endFill=1;entryX=0;entryY=0;entryDx=120;entryDy=25;entryPerimeter=0;" edge="1" parent="1" source="75" target="83">
                    <mxGeometry relative="1" as="geometry">
                        <mxPoint x="440" y="1129.9999999999998" as="targetPoint"/>
                    </mxGeometry>
                </mxCell>
                <mxCell id="75" value="IsPhoneConnected" style="rhombus;whiteSpace=wrap;html=1;" vertex="1" parent="1">
                    <mxGeometry x="570" y="1050" width="130" height="80" as="geometry"/>
                </mxCell>
                <mxCell id="76" value="True" style="text;html=1;strokeColor=none;fillColor=none;align=center;verticalAlign=middle;whiteSpace=wrap;rounded=0;" vertex="1" parent="1">
                    <mxGeometry x="670" y="1130" width="60" height="30" as="geometry"/>
                </mxCell>
                <mxCell id="77" value="True" style="text;html=1;strokeColor=none;fillColor=none;align=center;verticalAlign=middle;whiteSpace=wrap;rounded=0;" vertex="1" parent="1">
                    <mxGeometry x="605" y="1130" width="60" height="30" as="geometry"/>
                </mxCell>
                <mxCell id="78" value="True" style="text;html=1;strokeColor=none;fillColor=none;align=center;verticalAlign=middle;whiteSpace=wrap;rounded=0;" vertex="1" parent="1">
                    <mxGeometry x="690" y="1075" width="60" height="30" as="geometry"/>
                </mxCell>
                <mxCell id="80" value="True" style="text;html=1;strokeColor=none;fillColor=none;align=center;verticalAlign=middle;whiteSpace=wrap;rounded=0;" vertex="1" parent="1">
                    <mxGeometry x="660" y="1050" width="60" height="30" as="geometry"/>
                </mxCell>
                <mxCell id="82" value="False" style="text;html=1;strokeColor=none;fillColor=none;align=center;verticalAlign=middle;whiteSpace=wrap;rounded=0;" vertex="1" parent="1">
                    <mxGeometry x="515" y="1100" width="60" height="30" as="geometry"/>
                </mxCell>
                <mxCell id="83" value="Phone is disconnected" style="shape=callout;whiteSpace=wrap;html=1;perimeter=calloutPerimeter;" vertex="1" parent="1">
                    <mxGeometry x="350" y="1100" width="120" height="80" as="geometry"/>
                </mxCell>
            </root>
        </mxGraphModel>
    </diagram>
    <diagram id="BrHsk2L21U4nmkdUl43K" name="Page-2">
        <mxGraphModel dx="1668" dy="753" grid="1" gridSize="10" guides="1" tooltips="1" connect="1" arrows="1" fold="1" page="1" pageScale="1" pageWidth="850" pageHeight="1100" math="0" shadow="0">
            <root>
                <mxCell id="0"/>
                <mxCell id="1" parent="0"/>
                <mxCell id="gZ8La2Ilx0wypi80OCTz-4" style="edgeStyle=none;html=1;" parent="1" source="gZ8La2Ilx0wypi80OCTz-2" target="2HiPaDQyp8TKYIpN8d8Y-23" edge="1">
                    <mxGeometry relative="1" as="geometry"/>
                </mxCell>
                <mxCell id="gZ8La2Ilx0wypi80OCTz-5" style="edgeStyle=none;html=1;" parent="1" source="gZ8La2Ilx0wypi80OCTz-2" target="s7o-D4yu2JyEem4DQGjQ-1" edge="1">
                    <mxGeometry relative="1" as="geometry"/>
                </mxCell>
                <mxCell id="gZ8La2Ilx0wypi80OCTz-6" style="edgeStyle=none;html=1;entryX=0.5;entryY=0;entryDx=0;entryDy=0;" parent="1" source="gZ8La2Ilx0wypi80OCTz-2" target="2HiPaDQyp8TKYIpN8d8Y-19" edge="1">
                    <mxGeometry relative="1" as="geometry"/>
                </mxCell>
                <mxCell id="gZ8La2Ilx0wypi80OCTz-7" style="edgeStyle=none;html=1;entryX=0;entryY=0.25;entryDx=0;entryDy=0;entryPerimeter=0;" parent="1" source="gZ8La2Ilx0wypi80OCTz-2" target="iAUArV6FPLcXC1auUCiI-1" edge="1">
                    <mxGeometry relative="1" as="geometry"/>
                </mxCell>
                <mxCell id="gZ8La2Ilx0wypi80OCTz-2" value="MainMenu" style="ellipse;whiteSpace=wrap;html=1;" parent="1" vertex="1">
                    <mxGeometry x="370" y="210" width="80" height="80" as="geometry"/>
                </mxCell>
                <mxCell id="2HiPaDQyp8TKYIpN8d8Y-18" style="edgeStyle=none;html=1;entryX=0;entryY=0.5;entryDx=0;entryDy=0;" parent="1" target="gZ8La2Ilx0wypi80OCTz-2" edge="1">
                    <mxGeometry relative="1" as="geometry">
                        <mxPoint x="270" y="250" as="sourcePoint"/>
                    </mxGeometry>
                </mxCell>
                <mxCell id="gZ8La2Ilx0wypi80OCTz-14" style="edgeStyle=none;html=1;" parent="1" source="2HiPaDQyp8TKYIpN8d8Y-19" target="s7o-D4yu2JyEem4DQGjQ-1" edge="1">
                    <mxGeometry relative="1" as="geometry"/>
                </mxCell>
                <mxCell id="gZ8La2Ilx0wypi80OCTz-15" style="edgeStyle=none;html=1;" parent="1" source="2HiPaDQyp8TKYIpN8d8Y-19" target="2HiPaDQyp8TKYIpN8d8Y-23" edge="1">
                    <mxGeometry relative="1" as="geometry"/>
                </mxCell>
                <mxCell id="gZ8La2Ilx0wypi80OCTz-16" style="edgeStyle=none;html=1;" parent="1" source="2HiPaDQyp8TKYIpN8d8Y-19" target="iAUArV6FPLcXC1auUCiI-1" edge="1">
                    <mxGeometry relative="1" as="geometry"/>
                </mxCell>
                <mxCell id="2HiPaDQyp8TKYIpN8d8Y-19" value="PersonalAudio" style="ellipse;whiteSpace=wrap;html=1;aspect=fixed;" parent="1" vertex="1">
                    <mxGeometry x="420" y="530" width="100" height="100" as="geometry"/>
                </mxCell>
                <mxCell id="gZ8La2Ilx0wypi80OCTz-8" style="edgeStyle=none;html=1;" parent="1" source="2HiPaDQyp8TKYIpN8d8Y-23" target="s7o-D4yu2JyEem4DQGjQ-1" edge="1">
                    <mxGeometry relative="1" as="geometry"/>
                </mxCell>
                <mxCell id="gZ8La2Ilx0wypi80OCTz-9" style="edgeStyle=none;html=1;" parent="1" source="2HiPaDQyp8TKYIpN8d8Y-23" target="2HiPaDQyp8TKYIpN8d8Y-19" edge="1">
                    <mxGeometry relative="1" as="geometry"/>
                </mxCell>
                <mxCell id="gZ8La2Ilx0wypi80OCTz-10" style="edgeStyle=none;html=1;" parent="1" source="2HiPaDQyp8TKYIpN8d8Y-23" target="iAUArV6FPLcXC1auUCiI-1" edge="1">
                    <mxGeometry relative="1" as="geometry"/>
                </mxCell>
                <mxCell id="2HiPaDQyp8TKYIpN8d8Y-23" value="Radio" style="ellipse;whiteSpace=wrap;html=1;aspect=fixed;" parent="1" vertex="1">
                    <mxGeometry x="150" y="380" width="80" height="80" as="geometry"/>
                </mxCell>
                <mxCell id="gZ8La2Ilx0wypi80OCTz-3" value="On" style="text;html=1;align=center;verticalAlign=middle;resizable=0;points=[];autosize=1;strokeColor=none;fillColor=none;" parent="1" vertex="1">
                    <mxGeometry x="220" y="235" width="40" height="30" as="geometry"/>
                </mxCell>
                <mxCell id="gZ8La2Ilx0wypi80OCTz-11" style="edgeStyle=none;html=1;" parent="1" source="iAUArV6FPLcXC1auUCiI-1" target="2HiPaDQyp8TKYIpN8d8Y-19" edge="1">
                    <mxGeometry relative="1" as="geometry"/>
                </mxCell>
                <mxCell id="gZ8La2Ilx0wypi80OCTz-12" style="edgeStyle=none;html=1;" parent="1" source="iAUArV6FPLcXC1auUCiI-1" target="s7o-D4yu2JyEem4DQGjQ-1" edge="1">
                    <mxGeometry relative="1" as="geometry">
                        <Array as="points">
                            <mxPoint x="470" y="180"/>
                        </Array>
                    </mxGeometry>
                </mxCell>
                <mxCell id="gZ8La2Ilx0wypi80OCTz-13" style="edgeStyle=none;html=1;" parent="1" source="iAUArV6FPLcXC1auUCiI-1" target="2HiPaDQyp8TKYIpN8d8Y-23" edge="1">
                    <mxGeometry relative="1" as="geometry"/>
                </mxCell>
                <mxCell id="iAUArV6FPLcXC1auUCiI-1" value="Mobile" style="ellipse;whiteSpace=wrap;html=1;aspect=fixed;" parent="1" vertex="1">
                    <mxGeometry x="600" y="360" width="80" height="80" as="geometry"/>
                </mxCell>
                <mxCell id="s7o-D4yu2JyEem4DQGjQ-1" value="Productivity" style="ellipse;whiteSpace=wrap;html=1;aspect=fixed;" parent="1" vertex="1">
                    <mxGeometry x="140" y="20" width="80" height="80" as="geometry"/>
                </mxCell>
                <mxCell id="JIznAWHq3KeNwjPqCjvo-1" value="off" style="text;html=1;strokeColor=none;fillColor=none;align=center;verticalAlign=middle;whiteSpace=wrap;rounded=0;" parent="1" vertex="1">
                    <mxGeometry x="80" y="420" width="60" height="30" as="geometry"/>
                </mxCell>
                <mxCell id="JIznAWHq3KeNwjPqCjvo-2" value="off" style="text;html=1;strokeColor=none;fillColor=none;align=center;verticalAlign=middle;whiteSpace=wrap;rounded=0;" parent="1" vertex="1">
                    <mxGeometry x="395" y="640" width="60" height="30" as="geometry"/>
                </mxCell>
                <mxCell id="JIznAWHq3KeNwjPqCjvo-3" value="off" style="text;html=1;strokeColor=none;fillColor=none;align=center;verticalAlign=middle;whiteSpace=wrap;rounded=0;" parent="1" vertex="1">
                    <mxGeometry x="680" y="420" width="60" height="30" as="geometry"/>
                </mxCell>
                <mxCell id="JIznAWHq3KeNwjPqCjvo-4" value="off" style="text;html=1;strokeColor=none;fillColor=none;align=center;verticalAlign=middle;whiteSpace=wrap;rounded=0;" parent="1" vertex="1">
                    <mxGeometry x="90" y="10" width="60" height="30" as="geometry"/>
                </mxCell>
                <mxCell id="JIznAWHq3KeNwjPqCjvo-5" value="off" style="text;html=1;strokeColor=none;fillColor=none;align=center;verticalAlign=middle;whiteSpace=wrap;rounded=0;" parent="1" vertex="1">
                    <mxGeometry x="425" y="190" width="60" height="30" as="geometry"/>
                </mxCell>
                <mxCell id="gZ8La2Ilx0wypi80OCTz-19" value="ShowMenu" style="whiteSpace=wrap;html=1;" parent="1" vertex="1">
                    <mxGeometry x="590" y="120" width="130" height="30" as="geometry"/>
                </mxCell>
                <mxCell id="gZ8La2Ilx0wypi80OCTz-20" value="transition(int i)" style="whiteSpace=wrap;html=1;" parent="1" vertex="1">
                    <mxGeometry x="590" y="150" width="130" height="30" as="geometry"/>
                </mxCell>
                <mxCell id="gZ8La2Ilx0wypi80OCTz-21" value="systemOff" style="whiteSpace=wrap;html=1;" parent="1" vertex="1">
                    <mxGeometry x="590" y="180" width="130" height="30" as="geometry"/>
                </mxCell>
            </root>
        </mxGraphModel>
    </diagram>
</mxfile>